G04 (created by PCBNEW (2013-mar-13)-testing) date Wed 17 Sep 2014 03:38:06 PM PDT*
%MOIN*%
G04 Gerber Fmt 3.4, Leading zero omitted, Abs format*
%FSLAX34Y34*%
G01*
G70*
G90*
G04 APERTURE LIST*
%ADD10C,0.005906*%
%ADD11C,0.055000*%
%ADD12C,0.066000*%
%ADD13R,0.060000X0.060000*%
%ADD14C,0.060000*%
%ADD15C,0.070000*%
%ADD16R,0.035000X0.055000*%
G04 APERTURE END LIST*
G54D10*
G54D11*
X57500Y-32000D03*
X56500Y-32000D03*
X59500Y-41500D03*
X59500Y-42500D03*
X55500Y-41500D03*
X55500Y-42500D03*
G54D12*
X58500Y-32000D03*
X59500Y-32000D03*
G54D13*
X56000Y-27500D03*
G54D14*
X57000Y-27500D03*
X58000Y-27500D03*
X54000Y-27500D03*
X54000Y-28500D03*
X54000Y-29500D03*
X54000Y-30500D03*
X54000Y-31500D03*
X54000Y-32500D03*
X54000Y-33500D03*
X54000Y-34500D03*
X54000Y-35500D03*
X54000Y-36500D03*
X54000Y-37500D03*
X54000Y-38500D03*
X54000Y-39500D03*
X54000Y-40500D03*
X54000Y-41500D03*
X54000Y-42500D03*
X54000Y-43500D03*
X54000Y-44500D03*
X54000Y-45500D03*
X54000Y-46500D03*
G54D13*
X55500Y-30500D03*
G54D14*
X55500Y-29500D03*
X56500Y-30500D03*
X56500Y-29500D03*
X57500Y-30500D03*
X57500Y-29500D03*
X61000Y-27500D03*
X61000Y-28500D03*
X61000Y-29500D03*
X61000Y-30500D03*
X61000Y-31500D03*
X61000Y-32500D03*
X61000Y-33500D03*
X61000Y-34500D03*
X61000Y-35500D03*
X61000Y-36500D03*
X61000Y-37500D03*
X61000Y-38500D03*
X61000Y-39500D03*
X61000Y-40500D03*
X61000Y-41500D03*
X61000Y-42500D03*
X61000Y-43500D03*
X61000Y-44500D03*
X61000Y-45500D03*
X61000Y-46500D03*
G54D11*
X59500Y-30500D03*
X58500Y-30500D03*
X59000Y-44000D03*
X59000Y-46000D03*
X56000Y-44000D03*
X56000Y-46000D03*
G54D15*
X56500Y-39500D03*
X58500Y-39500D03*
G54D13*
X59500Y-29500D03*
G54D14*
X58500Y-29500D03*
G54D16*
X59375Y-33000D03*
X58625Y-33000D03*
M02*
