G04 (created by PCBNEW (2013-mar-13)-testing) date Wed 17 Sep 2014 03:38:06 PM PDT*
%MOIN*%
G04 Gerber Fmt 3.4, Leading zero omitted, Abs format*
%FSLAX34Y34*%
G01*
G70*
G90*
G04 APERTURE LIST*
%ADD10C,0.005906*%
%ADD11C,0.007874*%
%ADD12C,0.003900*%
%ADD13C,0.000100*%
%ADD14C,0.004300*%
G04 APERTURE END LIST*
G54D10*
G54D11*
X58972Y-43427D02*
X58912Y-43427D01*
X58882Y-43442D01*
X58852Y-43472D01*
X58837Y-43532D01*
X58837Y-43637D01*
X58852Y-43697D01*
X58882Y-43727D01*
X58912Y-43742D01*
X58972Y-43742D01*
X59002Y-43727D01*
X59032Y-43697D01*
X59047Y-43637D01*
X59047Y-43532D01*
X59032Y-43472D01*
X59002Y-43442D01*
X58972Y-43427D01*
X58702Y-43532D02*
X58702Y-43847D01*
X58702Y-43547D02*
X58672Y-43532D01*
X58612Y-43532D01*
X58582Y-43547D01*
X58567Y-43562D01*
X58552Y-43592D01*
X58552Y-43682D01*
X58567Y-43712D01*
X58582Y-43727D01*
X58612Y-43742D01*
X58672Y-43742D01*
X58702Y-43727D01*
X58297Y-43727D02*
X58327Y-43742D01*
X58387Y-43742D01*
X58417Y-43727D01*
X58432Y-43697D01*
X58432Y-43577D01*
X58417Y-43547D01*
X58387Y-43532D01*
X58327Y-43532D01*
X58297Y-43547D01*
X58282Y-43577D01*
X58282Y-43607D01*
X58432Y-43637D01*
X58147Y-43532D02*
X58147Y-43742D01*
X58147Y-43562D02*
X58132Y-43547D01*
X58102Y-43532D01*
X58057Y-43532D01*
X58027Y-43547D01*
X58012Y-43577D01*
X58012Y-43742D01*
X57637Y-43727D02*
X57592Y-43742D01*
X57517Y-43742D01*
X57487Y-43727D01*
X57472Y-43712D01*
X57457Y-43682D01*
X57457Y-43652D01*
X57472Y-43622D01*
X57487Y-43607D01*
X57517Y-43592D01*
X57577Y-43577D01*
X57607Y-43562D01*
X57622Y-43547D01*
X57637Y-43517D01*
X57637Y-43487D01*
X57622Y-43457D01*
X57607Y-43442D01*
X57577Y-43427D01*
X57502Y-43427D01*
X57457Y-43442D01*
X57277Y-43742D02*
X57307Y-43727D01*
X57322Y-43712D01*
X57337Y-43682D01*
X57337Y-43592D01*
X57322Y-43562D01*
X57307Y-43547D01*
X57277Y-43532D01*
X57232Y-43532D01*
X57202Y-43547D01*
X57187Y-43562D01*
X57172Y-43592D01*
X57172Y-43682D01*
X57187Y-43712D01*
X57202Y-43727D01*
X57232Y-43742D01*
X57277Y-43742D01*
X56902Y-43532D02*
X56902Y-43742D01*
X57037Y-43532D02*
X57037Y-43697D01*
X57022Y-43727D01*
X56992Y-43742D01*
X56947Y-43742D01*
X56917Y-43727D01*
X56902Y-43712D01*
X56752Y-43742D02*
X56752Y-43532D01*
X56752Y-43592D02*
X56737Y-43562D01*
X56722Y-43547D01*
X56692Y-43532D01*
X56662Y-43532D01*
X56422Y-43727D02*
X56452Y-43742D01*
X56512Y-43742D01*
X56542Y-43727D01*
X56557Y-43712D01*
X56572Y-43682D01*
X56572Y-43592D01*
X56557Y-43562D01*
X56542Y-43547D01*
X56512Y-43532D01*
X56452Y-43532D01*
X56422Y-43547D01*
X56167Y-43727D02*
X56197Y-43742D01*
X56257Y-43742D01*
X56287Y-43727D01*
X56302Y-43697D01*
X56302Y-43577D01*
X56287Y-43547D01*
X56257Y-43532D01*
X56197Y-43532D01*
X56167Y-43547D01*
X56152Y-43577D01*
X56152Y-43607D01*
X56302Y-43637D01*
X58612Y-44262D02*
X58612Y-43947D01*
X58612Y-44097D02*
X58432Y-44097D01*
X58432Y-44262D02*
X58432Y-43947D01*
X58147Y-44262D02*
X58147Y-44097D01*
X58162Y-44067D01*
X58192Y-44052D01*
X58252Y-44052D01*
X58282Y-44067D01*
X58147Y-44247D02*
X58177Y-44262D01*
X58252Y-44262D01*
X58282Y-44247D01*
X58297Y-44217D01*
X58297Y-44187D01*
X58282Y-44157D01*
X58252Y-44142D01*
X58177Y-44142D01*
X58147Y-44127D01*
X57997Y-44262D02*
X57997Y-44052D01*
X57997Y-44112D02*
X57982Y-44082D01*
X57967Y-44067D01*
X57937Y-44052D01*
X57907Y-44052D01*
X57667Y-44262D02*
X57667Y-43947D01*
X57667Y-44247D02*
X57697Y-44262D01*
X57757Y-44262D01*
X57787Y-44247D01*
X57802Y-44232D01*
X57817Y-44202D01*
X57817Y-44112D01*
X57802Y-44082D01*
X57787Y-44067D01*
X57757Y-44052D01*
X57697Y-44052D01*
X57667Y-44067D01*
X57547Y-44052D02*
X57487Y-44262D01*
X57427Y-44112D01*
X57367Y-44262D01*
X57307Y-44052D01*
X57052Y-44262D02*
X57052Y-44097D01*
X57067Y-44067D01*
X57097Y-44052D01*
X57157Y-44052D01*
X57187Y-44067D01*
X57052Y-44247D02*
X57082Y-44262D01*
X57157Y-44262D01*
X57187Y-44247D01*
X57202Y-44217D01*
X57202Y-44187D01*
X57187Y-44157D01*
X57157Y-44142D01*
X57082Y-44142D01*
X57052Y-44127D01*
X56902Y-44262D02*
X56902Y-44052D01*
X56902Y-44112D02*
X56887Y-44082D01*
X56872Y-44067D01*
X56842Y-44052D01*
X56812Y-44052D01*
X56587Y-44247D02*
X56617Y-44262D01*
X56677Y-44262D01*
X56707Y-44247D01*
X56722Y-44217D01*
X56722Y-44097D01*
X56707Y-44067D01*
X56677Y-44052D01*
X56617Y-44052D01*
X56587Y-44067D01*
X56572Y-44097D01*
X56572Y-44127D01*
X56722Y-44157D01*
G54D10*
X55106Y-30951D02*
X54870Y-30951D01*
X55106Y-31052D02*
X54983Y-31052D01*
X54960Y-31041D01*
X54949Y-31018D01*
X54949Y-30984D01*
X54960Y-30962D01*
X54971Y-30951D01*
X54949Y-31131D02*
X54949Y-31221D01*
X54870Y-31164D02*
X55073Y-31164D01*
X55095Y-31176D01*
X55106Y-31198D01*
X55106Y-31221D01*
X54949Y-31266D02*
X54949Y-31356D01*
X54870Y-31299D02*
X55073Y-31299D01*
X55095Y-31311D01*
X55106Y-31333D01*
X55106Y-31356D01*
X54949Y-31434D02*
X55185Y-31434D01*
X54960Y-31434D02*
X54949Y-31457D01*
X54949Y-31502D01*
X54960Y-31524D01*
X54971Y-31536D01*
X54994Y-31547D01*
X55061Y-31547D01*
X55084Y-31536D01*
X55095Y-31524D01*
X55106Y-31502D01*
X55106Y-31457D01*
X55095Y-31434D01*
X55095Y-31637D02*
X55106Y-31659D01*
X55106Y-31704D01*
X55095Y-31727D01*
X55073Y-31738D01*
X55061Y-31738D01*
X55039Y-31727D01*
X55028Y-31704D01*
X55028Y-31671D01*
X55016Y-31648D01*
X54994Y-31637D01*
X54983Y-31637D01*
X54960Y-31648D01*
X54949Y-31671D01*
X54949Y-31704D01*
X54960Y-31727D01*
X55084Y-31839D02*
X55095Y-31851D01*
X55106Y-31839D01*
X55095Y-31828D01*
X55084Y-31839D01*
X55106Y-31839D01*
X54960Y-31839D02*
X54971Y-31851D01*
X54983Y-31839D01*
X54971Y-31828D01*
X54960Y-31839D01*
X54983Y-31839D01*
X54859Y-32121D02*
X55163Y-31918D01*
X54859Y-32368D02*
X55163Y-32166D01*
X54949Y-32548D02*
X55140Y-32548D01*
X55163Y-32537D01*
X55174Y-32525D01*
X55185Y-32503D01*
X55185Y-32469D01*
X55174Y-32447D01*
X55095Y-32548D02*
X55106Y-32525D01*
X55106Y-32480D01*
X55095Y-32458D01*
X55084Y-32447D01*
X55061Y-32435D01*
X54994Y-32435D01*
X54971Y-32447D01*
X54960Y-32458D01*
X54949Y-32480D01*
X54949Y-32525D01*
X54960Y-32548D01*
X55106Y-32660D02*
X54949Y-32660D01*
X54870Y-32660D02*
X54881Y-32649D01*
X54893Y-32660D01*
X54881Y-32672D01*
X54870Y-32660D01*
X54893Y-32660D01*
X54949Y-32739D02*
X54949Y-32829D01*
X54870Y-32773D02*
X55073Y-32773D01*
X55095Y-32784D01*
X55106Y-32807D01*
X55106Y-32829D01*
X55106Y-32908D02*
X54870Y-32908D01*
X55106Y-33009D02*
X54983Y-33009D01*
X54960Y-32998D01*
X54949Y-32975D01*
X54949Y-32942D01*
X54960Y-32919D01*
X54971Y-32908D01*
X54949Y-33223D02*
X55106Y-33223D01*
X54949Y-33122D02*
X55073Y-33122D01*
X55095Y-33133D01*
X55106Y-33155D01*
X55106Y-33189D01*
X55095Y-33212D01*
X55084Y-33223D01*
X55106Y-33335D02*
X54870Y-33335D01*
X54960Y-33335D02*
X54949Y-33358D01*
X54949Y-33403D01*
X54960Y-33425D01*
X54971Y-33437D01*
X54994Y-33448D01*
X55061Y-33448D01*
X55084Y-33437D01*
X55095Y-33425D01*
X55106Y-33403D01*
X55106Y-33358D01*
X55095Y-33335D01*
X55084Y-33549D02*
X55095Y-33560D01*
X55106Y-33549D01*
X55095Y-33538D01*
X55084Y-33549D01*
X55106Y-33549D01*
X55095Y-33763D02*
X55106Y-33740D01*
X55106Y-33695D01*
X55095Y-33673D01*
X55084Y-33662D01*
X55061Y-33650D01*
X54994Y-33650D01*
X54971Y-33662D01*
X54960Y-33673D01*
X54949Y-33695D01*
X54949Y-33740D01*
X54960Y-33763D01*
X55106Y-33898D02*
X55095Y-33875D01*
X55084Y-33864D01*
X55061Y-33853D01*
X54994Y-33853D01*
X54971Y-33864D01*
X54960Y-33875D01*
X54949Y-33898D01*
X54949Y-33932D01*
X54960Y-33954D01*
X54971Y-33965D01*
X54994Y-33977D01*
X55061Y-33977D01*
X55084Y-33965D01*
X55095Y-33954D01*
X55106Y-33932D01*
X55106Y-33898D01*
X55106Y-34078D02*
X54949Y-34078D01*
X54971Y-34078D02*
X54960Y-34089D01*
X54949Y-34112D01*
X54949Y-34145D01*
X54960Y-34168D01*
X54983Y-34179D01*
X55106Y-34179D01*
X54983Y-34179D02*
X54960Y-34190D01*
X54949Y-34213D01*
X54949Y-34247D01*
X54960Y-34269D01*
X54983Y-34280D01*
X55106Y-34280D01*
X54859Y-34561D02*
X55163Y-34359D01*
X55095Y-34730D02*
X55106Y-34708D01*
X55106Y-34663D01*
X55095Y-34640D01*
X55073Y-34629D01*
X54983Y-34629D01*
X54960Y-34640D01*
X54949Y-34663D01*
X54949Y-34708D01*
X54960Y-34730D01*
X54983Y-34741D01*
X55005Y-34741D01*
X55028Y-34629D01*
X55106Y-34843D02*
X54949Y-34843D01*
X54971Y-34843D02*
X54960Y-34854D01*
X54949Y-34876D01*
X54949Y-34910D01*
X54960Y-34933D01*
X54983Y-34944D01*
X55106Y-34944D01*
X54983Y-34944D02*
X54960Y-34955D01*
X54949Y-34978D01*
X54949Y-35011D01*
X54960Y-35034D01*
X54983Y-35045D01*
X55106Y-35045D01*
X55106Y-35259D02*
X54870Y-35259D01*
X55095Y-35259D02*
X55106Y-35236D01*
X55106Y-35191D01*
X55095Y-35169D01*
X55084Y-35158D01*
X55061Y-35146D01*
X54994Y-35146D01*
X54971Y-35158D01*
X54960Y-35169D01*
X54949Y-35191D01*
X54949Y-35236D01*
X54960Y-35259D01*
X55106Y-35473D02*
X54983Y-35473D01*
X54960Y-35461D01*
X54949Y-35439D01*
X54949Y-35394D01*
X54960Y-35371D01*
X55095Y-35473D02*
X55106Y-35450D01*
X55106Y-35394D01*
X55095Y-35371D01*
X55073Y-35360D01*
X55050Y-35360D01*
X55028Y-35371D01*
X55016Y-35394D01*
X55016Y-35450D01*
X55005Y-35473D01*
X55106Y-35585D02*
X54949Y-35585D01*
X54994Y-35585D02*
X54971Y-35596D01*
X54960Y-35608D01*
X54949Y-35630D01*
X54949Y-35653D01*
X55095Y-35833D02*
X55106Y-35810D01*
X55106Y-35765D01*
X55095Y-35743D01*
X55084Y-35731D01*
X55061Y-35720D01*
X54994Y-35720D01*
X54971Y-35731D01*
X54960Y-35743D01*
X54949Y-35765D01*
X54949Y-35810D01*
X54960Y-35833D01*
X55106Y-35934D02*
X54870Y-35934D01*
X55106Y-36035D02*
X54983Y-36035D01*
X54960Y-36024D01*
X54949Y-36001D01*
X54949Y-35968D01*
X54960Y-35945D01*
X54971Y-35934D01*
X55095Y-36238D02*
X55106Y-36215D01*
X55106Y-36170D01*
X55095Y-36148D01*
X55073Y-36136D01*
X54983Y-36136D01*
X54960Y-36148D01*
X54949Y-36170D01*
X54949Y-36215D01*
X54960Y-36238D01*
X54983Y-36249D01*
X55005Y-36249D01*
X55028Y-36136D01*
X55106Y-36350D02*
X54949Y-36350D01*
X54994Y-36350D02*
X54971Y-36361D01*
X54960Y-36373D01*
X54949Y-36395D01*
X54949Y-36417D01*
X54859Y-36665D02*
X55163Y-36462D01*
X55039Y-36732D02*
X55039Y-36845D01*
X55106Y-36710D02*
X54870Y-36789D01*
X55106Y-36867D01*
X54870Y-36912D02*
X55106Y-36991D01*
X54870Y-37070D01*
X55106Y-37284D02*
X54994Y-37205D01*
X55106Y-37149D02*
X54870Y-37149D01*
X54870Y-37239D01*
X54881Y-37261D01*
X54893Y-37272D01*
X54915Y-37284D01*
X54949Y-37284D01*
X54971Y-37272D01*
X54983Y-37261D01*
X54994Y-37239D01*
X54994Y-37149D01*
X55129Y-37329D02*
X55129Y-37509D01*
X55106Y-37565D02*
X54870Y-37565D01*
X54960Y-37565D02*
X54949Y-37587D01*
X54949Y-37632D01*
X54960Y-37655D01*
X54971Y-37666D01*
X54994Y-37677D01*
X55061Y-37677D01*
X55084Y-37666D01*
X55095Y-37655D01*
X55106Y-37632D01*
X55106Y-37587D01*
X55095Y-37565D01*
X55106Y-37812D02*
X55095Y-37790D01*
X55084Y-37779D01*
X55061Y-37767D01*
X54994Y-37767D01*
X54971Y-37779D01*
X54960Y-37790D01*
X54949Y-37812D01*
X54949Y-37846D01*
X54960Y-37869D01*
X54971Y-37880D01*
X54994Y-37891D01*
X55061Y-37891D01*
X55084Y-37880D01*
X55095Y-37869D01*
X55106Y-37846D01*
X55106Y-37812D01*
X55106Y-38094D02*
X54983Y-38094D01*
X54960Y-38082D01*
X54949Y-38060D01*
X54949Y-38015D01*
X54960Y-37992D01*
X55095Y-38094D02*
X55106Y-38071D01*
X55106Y-38015D01*
X55095Y-37992D01*
X55073Y-37981D01*
X55050Y-37981D01*
X55028Y-37992D01*
X55016Y-38015D01*
X55016Y-38071D01*
X55005Y-38094D01*
X55106Y-38206D02*
X54949Y-38206D01*
X54994Y-38206D02*
X54971Y-38217D01*
X54960Y-38229D01*
X54949Y-38251D01*
X54949Y-38274D01*
X55106Y-38453D02*
X54870Y-38453D01*
X55095Y-38453D02*
X55106Y-38431D01*
X55106Y-38386D01*
X55095Y-38364D01*
X55084Y-38352D01*
X55061Y-38341D01*
X54994Y-38341D01*
X54971Y-38352D01*
X54960Y-38364D01*
X54949Y-38386D01*
X54949Y-38431D01*
X54960Y-38453D01*
X55129Y-38510D02*
X55129Y-38690D01*
X55106Y-38746D02*
X54949Y-38746D01*
X54971Y-38746D02*
X54960Y-38757D01*
X54949Y-38780D01*
X54949Y-38813D01*
X54960Y-38836D01*
X54983Y-38847D01*
X55106Y-38847D01*
X54983Y-38847D02*
X54960Y-38858D01*
X54949Y-38881D01*
X54949Y-38915D01*
X54960Y-38937D01*
X54983Y-38948D01*
X55106Y-38948D01*
X54971Y-39095D02*
X54960Y-39072D01*
X54949Y-39061D01*
X54926Y-39050D01*
X54915Y-39050D01*
X54893Y-39061D01*
X54881Y-39072D01*
X54870Y-39095D01*
X54870Y-39140D01*
X54881Y-39162D01*
X54893Y-39173D01*
X54915Y-39185D01*
X54926Y-39185D01*
X54949Y-39173D01*
X54960Y-39162D01*
X54971Y-39140D01*
X54971Y-39095D01*
X54983Y-39072D01*
X54994Y-39061D01*
X55016Y-39050D01*
X55061Y-39050D01*
X55084Y-39061D01*
X55095Y-39072D01*
X55106Y-39095D01*
X55106Y-39140D01*
X55095Y-39162D01*
X55084Y-39173D01*
X55061Y-39185D01*
X55016Y-39185D01*
X54994Y-39173D01*
X54983Y-39162D01*
X54971Y-39140D01*
X54870Y-39398D02*
X54870Y-39286D01*
X54983Y-39275D01*
X54971Y-39286D01*
X54960Y-39308D01*
X54960Y-39365D01*
X54971Y-39387D01*
X54983Y-39398D01*
X55005Y-39410D01*
X55061Y-39410D01*
X55084Y-39398D01*
X55095Y-39387D01*
X55106Y-39365D01*
X55106Y-39308D01*
X55095Y-39286D01*
X55084Y-39275D01*
X55106Y-39635D02*
X55106Y-39500D01*
X55106Y-39567D02*
X54870Y-39567D01*
X54904Y-39545D01*
X54926Y-39522D01*
X54938Y-39500D01*
X54870Y-39848D02*
X54870Y-39736D01*
X54983Y-39725D01*
X54971Y-39736D01*
X54960Y-39758D01*
X54960Y-39815D01*
X54971Y-39837D01*
X54983Y-39848D01*
X55005Y-39860D01*
X55061Y-39860D01*
X55084Y-39848D01*
X55095Y-39837D01*
X55106Y-39815D01*
X55106Y-39758D01*
X55095Y-39736D01*
X55084Y-39725D01*
X58679Y-38106D02*
X58679Y-37870D01*
X58623Y-37870D01*
X58589Y-37881D01*
X58567Y-37904D01*
X58556Y-37926D01*
X58544Y-37971D01*
X58544Y-38005D01*
X58556Y-38050D01*
X58567Y-38073D01*
X58589Y-38095D01*
X58623Y-38106D01*
X58679Y-38106D01*
X58353Y-38095D02*
X58376Y-38106D01*
X58421Y-38106D01*
X58443Y-38095D01*
X58454Y-38073D01*
X58454Y-37983D01*
X58443Y-37960D01*
X58421Y-37949D01*
X58376Y-37949D01*
X58353Y-37960D01*
X58342Y-37983D01*
X58342Y-38005D01*
X58454Y-38028D01*
X58252Y-38095D02*
X58229Y-38106D01*
X58184Y-38106D01*
X58162Y-38095D01*
X58151Y-38073D01*
X58151Y-38061D01*
X58162Y-38039D01*
X58184Y-38028D01*
X58218Y-38028D01*
X58241Y-38016D01*
X58252Y-37994D01*
X58252Y-37983D01*
X58241Y-37960D01*
X58218Y-37949D01*
X58184Y-37949D01*
X58162Y-37960D01*
X58049Y-38106D02*
X58049Y-37949D01*
X58049Y-37870D02*
X58061Y-37881D01*
X58049Y-37893D01*
X58038Y-37881D01*
X58049Y-37870D01*
X58049Y-37893D01*
X57836Y-37949D02*
X57836Y-38140D01*
X57847Y-38163D01*
X57858Y-38174D01*
X57881Y-38185D01*
X57914Y-38185D01*
X57937Y-38174D01*
X57836Y-38095D02*
X57858Y-38106D01*
X57903Y-38106D01*
X57926Y-38095D01*
X57937Y-38084D01*
X57948Y-38061D01*
X57948Y-37994D01*
X57937Y-37971D01*
X57926Y-37960D01*
X57903Y-37949D01*
X57858Y-37949D01*
X57836Y-37960D01*
X57723Y-37949D02*
X57723Y-38106D01*
X57723Y-37971D02*
X57712Y-37960D01*
X57689Y-37949D01*
X57656Y-37949D01*
X57633Y-37960D01*
X57622Y-37983D01*
X57622Y-38106D01*
X57420Y-38095D02*
X57442Y-38106D01*
X57487Y-38106D01*
X57510Y-38095D01*
X57521Y-38073D01*
X57521Y-37983D01*
X57510Y-37960D01*
X57487Y-37949D01*
X57442Y-37949D01*
X57420Y-37960D01*
X57408Y-37983D01*
X57408Y-38005D01*
X57521Y-38028D01*
X57206Y-38106D02*
X57206Y-37870D01*
X57206Y-38095D02*
X57228Y-38106D01*
X57273Y-38106D01*
X57296Y-38095D01*
X57307Y-38084D01*
X57318Y-38061D01*
X57318Y-37994D01*
X57307Y-37971D01*
X57296Y-37960D01*
X57273Y-37949D01*
X57228Y-37949D01*
X57206Y-37960D01*
X56913Y-38106D02*
X56913Y-37870D01*
X56913Y-37960D02*
X56891Y-37949D01*
X56846Y-37949D01*
X56823Y-37960D01*
X56812Y-37971D01*
X56801Y-37994D01*
X56801Y-38061D01*
X56812Y-38084D01*
X56823Y-38095D01*
X56846Y-38106D01*
X56891Y-38106D01*
X56913Y-38095D01*
X56722Y-37949D02*
X56666Y-38106D01*
X56610Y-37949D02*
X56666Y-38106D01*
X56688Y-38163D01*
X56700Y-38174D01*
X56722Y-38185D01*
X56520Y-38084D02*
X56508Y-38095D01*
X56520Y-38106D01*
X56531Y-38095D01*
X56520Y-38084D01*
X56520Y-38106D01*
X56520Y-37960D02*
X56508Y-37971D01*
X56520Y-37983D01*
X56531Y-37971D01*
X56520Y-37960D01*
X56520Y-37983D01*
X59832Y-38372D02*
X59754Y-38372D01*
X59720Y-38496D02*
X59832Y-38496D01*
X59832Y-38260D01*
X59720Y-38260D01*
X59652Y-38339D02*
X59562Y-38339D01*
X59619Y-38260D02*
X59619Y-38462D01*
X59607Y-38485D01*
X59585Y-38496D01*
X59562Y-38496D01*
X59484Y-38496D02*
X59484Y-38260D01*
X59382Y-38496D02*
X59382Y-38372D01*
X59394Y-38350D01*
X59416Y-38339D01*
X59450Y-38339D01*
X59472Y-38350D01*
X59484Y-38361D01*
X59169Y-38496D02*
X59169Y-38372D01*
X59180Y-38350D01*
X59202Y-38339D01*
X59247Y-38339D01*
X59270Y-38350D01*
X59169Y-38485D02*
X59191Y-38496D01*
X59247Y-38496D01*
X59270Y-38485D01*
X59281Y-38462D01*
X59281Y-38440D01*
X59270Y-38417D01*
X59247Y-38406D01*
X59191Y-38406D01*
X59169Y-38395D01*
X59056Y-38339D02*
X59056Y-38496D01*
X59056Y-38361D02*
X59045Y-38350D01*
X59022Y-38339D01*
X58989Y-38339D01*
X58966Y-38350D01*
X58955Y-38372D01*
X58955Y-38496D01*
X58662Y-38496D02*
X58662Y-38260D01*
X58606Y-38260D01*
X58573Y-38271D01*
X58550Y-38294D01*
X58539Y-38316D01*
X58528Y-38361D01*
X58528Y-38395D01*
X58539Y-38440D01*
X58550Y-38462D01*
X58573Y-38485D01*
X58606Y-38496D01*
X58662Y-38496D01*
X58325Y-38339D02*
X58325Y-38496D01*
X58426Y-38339D02*
X58426Y-38462D01*
X58415Y-38485D01*
X58393Y-38496D01*
X58359Y-38496D01*
X58336Y-38485D01*
X58325Y-38474D01*
X58213Y-38496D02*
X58213Y-38339D01*
X58213Y-38384D02*
X58201Y-38361D01*
X58190Y-38350D01*
X58168Y-38339D01*
X58145Y-38339D01*
X58066Y-38496D02*
X58066Y-38339D01*
X58066Y-38384D02*
X58055Y-38361D01*
X58044Y-38350D01*
X58021Y-38339D01*
X57999Y-38339D01*
X57819Y-38496D02*
X57819Y-38372D01*
X57830Y-38350D01*
X57853Y-38339D01*
X57898Y-38339D01*
X57920Y-38350D01*
X57819Y-38485D02*
X57841Y-38496D01*
X57898Y-38496D01*
X57920Y-38485D01*
X57931Y-38462D01*
X57931Y-38440D01*
X57920Y-38417D01*
X57898Y-38406D01*
X57841Y-38406D01*
X57819Y-38395D01*
X57706Y-38339D02*
X57706Y-38496D01*
X57706Y-38361D02*
X57695Y-38350D01*
X57673Y-38339D01*
X57639Y-38339D01*
X57616Y-38350D01*
X57605Y-38372D01*
X57605Y-38496D01*
X57526Y-38339D02*
X57436Y-38339D01*
X57493Y-38260D02*
X57493Y-38462D01*
X57481Y-38485D01*
X57459Y-38496D01*
X57436Y-38496D01*
X57189Y-38249D02*
X57391Y-38552D01*
X57020Y-38485D02*
X57043Y-38496D01*
X57088Y-38496D01*
X57110Y-38485D01*
X57121Y-38462D01*
X57121Y-38372D01*
X57110Y-38350D01*
X57088Y-38339D01*
X57043Y-38339D01*
X57020Y-38350D01*
X57009Y-38372D01*
X57009Y-38395D01*
X57121Y-38417D01*
X56908Y-38496D02*
X56908Y-38339D01*
X56908Y-38361D02*
X56896Y-38350D01*
X56874Y-38339D01*
X56840Y-38339D01*
X56818Y-38350D01*
X56806Y-38372D01*
X56806Y-38496D01*
X56806Y-38372D02*
X56795Y-38350D01*
X56773Y-38339D01*
X56739Y-38339D01*
X56716Y-38350D01*
X56705Y-38372D01*
X56705Y-38496D01*
X56492Y-38496D02*
X56492Y-38260D01*
X56492Y-38485D02*
X56514Y-38496D01*
X56559Y-38496D01*
X56582Y-38485D01*
X56593Y-38474D01*
X56604Y-38451D01*
X56604Y-38384D01*
X56593Y-38361D01*
X56582Y-38350D01*
X56559Y-38339D01*
X56514Y-38339D01*
X56492Y-38350D01*
X56278Y-38496D02*
X56278Y-38372D01*
X56289Y-38350D01*
X56312Y-38339D01*
X56357Y-38339D01*
X56379Y-38350D01*
X56278Y-38485D02*
X56300Y-38496D01*
X56357Y-38496D01*
X56379Y-38485D01*
X56390Y-38462D01*
X56390Y-38440D01*
X56379Y-38417D01*
X56357Y-38406D01*
X56300Y-38406D01*
X56278Y-38395D01*
X56165Y-38496D02*
X56165Y-38339D01*
X56165Y-38384D02*
X56154Y-38361D01*
X56143Y-38350D01*
X56120Y-38339D01*
X56098Y-38339D01*
X55918Y-38485D02*
X55940Y-38496D01*
X55985Y-38496D01*
X56008Y-38485D01*
X56019Y-38474D01*
X56030Y-38451D01*
X56030Y-38384D01*
X56019Y-38361D01*
X56008Y-38350D01*
X55985Y-38339D01*
X55940Y-38339D01*
X55918Y-38350D01*
X55817Y-38496D02*
X55817Y-38260D01*
X55715Y-38496D02*
X55715Y-38372D01*
X55727Y-38350D01*
X55749Y-38339D01*
X55783Y-38339D01*
X55805Y-38350D01*
X55817Y-38361D01*
X55513Y-38485D02*
X55535Y-38496D01*
X55580Y-38496D01*
X55603Y-38485D01*
X55614Y-38462D01*
X55614Y-38372D01*
X55603Y-38350D01*
X55580Y-38339D01*
X55535Y-38339D01*
X55513Y-38350D01*
X55502Y-38372D01*
X55502Y-38395D01*
X55614Y-38417D01*
X55400Y-38496D02*
X55400Y-38339D01*
X55400Y-38384D02*
X55389Y-38361D01*
X55378Y-38350D01*
X55355Y-38339D01*
X55333Y-38339D01*
G54D12*
X59700Y-33300D02*
G75*
G03X59700Y-33300I-50J0D01*
G74*
G01*
X59200Y-33300D02*
X59600Y-33300D01*
X59600Y-33300D02*
X59600Y-32700D01*
X59600Y-32700D02*
X59200Y-32700D01*
X58800Y-32700D02*
X58400Y-32700D01*
X58400Y-32700D02*
X58400Y-33300D01*
X58400Y-33300D02*
X58800Y-33300D01*
G54D13*
G36*
X59633Y-37633D02*
X59367Y-37633D01*
X59367Y-36967D01*
X59363Y-36881D01*
X59341Y-36843D01*
X59280Y-36833D01*
X59233Y-36833D01*
X59148Y-36830D01*
X59110Y-36808D01*
X59100Y-36747D01*
X59100Y-36700D01*
X59100Y-36567D01*
X58833Y-36567D01*
X58567Y-36567D01*
X58567Y-36433D01*
X58570Y-36348D01*
X58592Y-36310D01*
X58653Y-36300D01*
X58700Y-36300D01*
X58833Y-36300D01*
X58833Y-35900D01*
X58833Y-35500D01*
X58700Y-35500D01*
X58614Y-35497D01*
X58577Y-35474D01*
X58567Y-35413D01*
X58567Y-35367D01*
X58563Y-35281D01*
X58541Y-35243D01*
X58480Y-35233D01*
X58433Y-35233D01*
X58348Y-35230D01*
X58310Y-35208D01*
X58300Y-35147D01*
X58300Y-35100D01*
X58300Y-34967D01*
X58033Y-34967D01*
X57767Y-34967D01*
X57767Y-34700D01*
X57767Y-34433D01*
X57633Y-34433D01*
X57548Y-34430D01*
X57510Y-34408D01*
X57500Y-34347D01*
X57500Y-34300D01*
X57497Y-34214D01*
X57474Y-34177D01*
X57413Y-34167D01*
X57367Y-34167D01*
X57281Y-34163D01*
X57243Y-34141D01*
X57233Y-34080D01*
X57233Y-34033D01*
X57233Y-33900D01*
X56833Y-33900D01*
X56433Y-33900D01*
X56433Y-34033D01*
X56430Y-34119D01*
X56408Y-34156D01*
X56347Y-34166D01*
X56300Y-34167D01*
X56214Y-34170D01*
X56177Y-34192D01*
X56167Y-34253D01*
X56167Y-34300D01*
X56163Y-34385D01*
X56141Y-34423D01*
X56080Y-34433D01*
X56033Y-34433D01*
X55900Y-34433D01*
X55900Y-34833D01*
X55900Y-35233D01*
X56033Y-35233D01*
X56167Y-35233D01*
X56167Y-34833D01*
X56167Y-34433D01*
X56300Y-34433D01*
X56385Y-34430D01*
X56423Y-34408D01*
X56433Y-34347D01*
X56433Y-34300D01*
X56433Y-34167D01*
X56833Y-34167D01*
X57233Y-34167D01*
X57233Y-34300D01*
X57236Y-34385D01*
X57259Y-34423D01*
X57320Y-34433D01*
X57367Y-34433D01*
X57500Y-34433D01*
X57500Y-34833D01*
X57500Y-35233D01*
X57367Y-35233D01*
X57233Y-35233D01*
X57233Y-34967D01*
X57233Y-34700D01*
X56967Y-34700D01*
X56700Y-34700D01*
X56700Y-34967D01*
X56700Y-35233D01*
X56967Y-35233D01*
X57233Y-35233D01*
X57233Y-35367D01*
X57230Y-35452D01*
X57208Y-35490D01*
X57147Y-35500D01*
X57100Y-35500D01*
X57014Y-35503D01*
X56977Y-35525D01*
X56967Y-35586D01*
X56967Y-35633D01*
X56970Y-35719D01*
X56992Y-35756D01*
X57053Y-35766D01*
X57100Y-35767D01*
X57185Y-35763D01*
X57223Y-35741D01*
X57233Y-35680D01*
X57233Y-35633D01*
X57236Y-35548D01*
X57259Y-35510D01*
X57320Y-35500D01*
X57367Y-35500D01*
X57452Y-35503D01*
X57490Y-35525D01*
X57500Y-35586D01*
X57500Y-35633D01*
X57503Y-35719D01*
X57525Y-35756D01*
X57586Y-35766D01*
X57633Y-35767D01*
X57719Y-35770D01*
X57756Y-35792D01*
X57766Y-35853D01*
X57767Y-35900D01*
X57763Y-35985D01*
X57741Y-36023D01*
X57680Y-36033D01*
X57633Y-36033D01*
X57548Y-36036D01*
X57510Y-36059D01*
X57500Y-36120D01*
X57500Y-36167D01*
X57497Y-36252D01*
X57474Y-36290D01*
X57413Y-36300D01*
X57367Y-36300D01*
X57281Y-36303D01*
X57243Y-36325D01*
X57233Y-36386D01*
X57233Y-36433D01*
X57236Y-36519D01*
X57259Y-36556D01*
X57320Y-36566D01*
X57367Y-36567D01*
X57452Y-36570D01*
X57490Y-36592D01*
X57500Y-36653D01*
X57500Y-36700D01*
X57500Y-36833D01*
X57900Y-36833D01*
X58300Y-36833D01*
X58300Y-36700D01*
X58303Y-36614D01*
X58325Y-36577D01*
X58386Y-36567D01*
X58433Y-36567D01*
X58567Y-36567D01*
X58567Y-36833D01*
X58567Y-37100D01*
X58700Y-37100D01*
X58785Y-37103D01*
X58823Y-37125D01*
X58833Y-37186D01*
X58833Y-37233D01*
X58836Y-37319D01*
X58859Y-37356D01*
X58920Y-37366D01*
X58967Y-37367D01*
X59052Y-37363D01*
X59090Y-37341D01*
X59100Y-37280D01*
X59100Y-37233D01*
X59103Y-37148D01*
X59125Y-37110D01*
X59186Y-37100D01*
X59233Y-37100D01*
X59319Y-37097D01*
X59356Y-37074D01*
X59366Y-37013D01*
X59367Y-36967D01*
X59367Y-37633D01*
X57500Y-37633D01*
X55367Y-37633D01*
X55367Y-35500D01*
X55367Y-33367D01*
X57500Y-33367D01*
X59633Y-33367D01*
X59633Y-35500D01*
X59633Y-37633D01*
X59633Y-37633D01*
X59633Y-37633D01*
G37*
G36*
X58567Y-36300D02*
X58433Y-36300D01*
X58348Y-36303D01*
X58310Y-36325D01*
X58300Y-36386D01*
X58300Y-36213D01*
X58300Y-36167D01*
X58297Y-36081D01*
X58274Y-36043D01*
X58213Y-36033D01*
X58167Y-36033D01*
X58081Y-36036D01*
X58043Y-36059D01*
X58033Y-36120D01*
X58033Y-36167D01*
X58036Y-36252D01*
X58059Y-36290D01*
X58120Y-36300D01*
X58167Y-36300D01*
X58252Y-36297D01*
X58290Y-36274D01*
X58300Y-36213D01*
X58300Y-36386D01*
X58300Y-36433D01*
X58300Y-36567D01*
X57900Y-36567D01*
X57500Y-36567D01*
X57500Y-36433D01*
X57503Y-36348D01*
X57525Y-36310D01*
X57586Y-36300D01*
X57633Y-36300D01*
X57719Y-36297D01*
X57756Y-36274D01*
X57766Y-36213D01*
X57767Y-36167D01*
X57770Y-36081D01*
X57792Y-36043D01*
X57853Y-36033D01*
X57900Y-36033D01*
X57985Y-36030D01*
X58023Y-36008D01*
X58033Y-35947D01*
X58033Y-35900D01*
X58030Y-35814D01*
X58008Y-35777D01*
X57947Y-35767D01*
X57900Y-35767D01*
X57814Y-35763D01*
X57777Y-35741D01*
X57767Y-35680D01*
X57767Y-35633D01*
X57763Y-35548D01*
X57741Y-35510D01*
X57680Y-35500D01*
X57633Y-35500D01*
X57548Y-35497D01*
X57510Y-35474D01*
X57500Y-35413D01*
X57500Y-35367D01*
X57500Y-35233D01*
X57900Y-35233D01*
X58300Y-35233D01*
X58300Y-35367D01*
X58303Y-35452D01*
X58325Y-35490D01*
X58386Y-35500D01*
X58433Y-35500D01*
X58567Y-35500D01*
X58567Y-35900D01*
X58567Y-36300D01*
X58567Y-36300D01*
X58567Y-36300D01*
G37*
G36*
X59750Y-40016D02*
X57625Y-40024D01*
X55500Y-40033D01*
X55491Y-41841D01*
X55483Y-43650D01*
X55475Y-41825D01*
X55467Y-40000D01*
X57608Y-40008D01*
X59750Y-40016D01*
X59750Y-40016D01*
X59750Y-40016D01*
G37*
G36*
X59400Y-42230D02*
X59275Y-42252D01*
X59122Y-42279D01*
X59021Y-42301D01*
X58957Y-42328D01*
X58916Y-42368D01*
X58884Y-42429D01*
X58850Y-42512D01*
X58770Y-42708D01*
X58909Y-42904D01*
X59047Y-43100D01*
X58883Y-43266D01*
X58798Y-43349D01*
X58730Y-43409D01*
X58693Y-43433D01*
X58692Y-43433D01*
X58653Y-43416D01*
X58575Y-43371D01*
X58483Y-43312D01*
X58382Y-43247D01*
X58315Y-43216D01*
X58262Y-43213D01*
X58204Y-43231D01*
X58199Y-43233D01*
X58128Y-43258D01*
X58090Y-43263D01*
X58088Y-43262D01*
X58073Y-43228D01*
X58037Y-43145D01*
X57987Y-43024D01*
X57927Y-42879D01*
X57922Y-42866D01*
X57764Y-42483D01*
X57851Y-42413D01*
X57978Y-42275D01*
X58051Y-42118D01*
X58071Y-41953D01*
X58038Y-41793D01*
X57954Y-41650D01*
X57819Y-41538D01*
X57800Y-41528D01*
X57634Y-41473D01*
X57470Y-41477D01*
X57320Y-41533D01*
X57195Y-41633D01*
X57107Y-41771D01*
X57068Y-41940D01*
X57067Y-41973D01*
X57078Y-42124D01*
X57122Y-42238D01*
X57210Y-42344D01*
X57253Y-42383D01*
X57367Y-42483D01*
X57214Y-42850D01*
X57152Y-42995D01*
X57097Y-43118D01*
X57056Y-43205D01*
X57035Y-43243D01*
X56990Y-43250D01*
X56922Y-43229D01*
X56869Y-43211D01*
X56816Y-43216D01*
X56746Y-43250D01*
X56651Y-43311D01*
X56553Y-43373D01*
X56477Y-43417D01*
X56441Y-43433D01*
X56406Y-43411D01*
X56339Y-43353D01*
X56254Y-43271D01*
X56250Y-43267D01*
X56087Y-43100D01*
X56224Y-42901D01*
X56362Y-42701D01*
X56277Y-42503D01*
X56228Y-42396D01*
X56188Y-42335D01*
X56139Y-42304D01*
X56065Y-42288D01*
X56037Y-42284D01*
X55895Y-42263D01*
X55806Y-42242D01*
X55757Y-42209D01*
X55737Y-42151D01*
X55733Y-42056D01*
X55733Y-41981D01*
X55733Y-41736D01*
X55858Y-41701D01*
X55964Y-41678D01*
X56058Y-41666D01*
X56067Y-41666D01*
X56143Y-41658D01*
X56198Y-41625D01*
X56246Y-41556D01*
X56299Y-41443D01*
X56373Y-41270D01*
X56231Y-41067D01*
X56088Y-40863D01*
X56265Y-40684D01*
X56443Y-40504D01*
X56658Y-40649D01*
X56873Y-40793D01*
X57045Y-40714D01*
X57217Y-40635D01*
X57264Y-40383D01*
X57312Y-40130D01*
X57562Y-40140D01*
X57813Y-40150D01*
X57865Y-40396D01*
X57917Y-40642D01*
X58090Y-40718D01*
X58263Y-40794D01*
X58473Y-40647D01*
X58683Y-40501D01*
X58862Y-40679D01*
X59041Y-40858D01*
X58901Y-41064D01*
X58762Y-41270D01*
X58837Y-41451D01*
X58882Y-41553D01*
X58927Y-41614D01*
X58991Y-41649D01*
X59093Y-41672D01*
X59150Y-41682D01*
X59275Y-41703D01*
X59349Y-41727D01*
X59386Y-41771D01*
X59399Y-41850D01*
X59400Y-41979D01*
X59400Y-41984D01*
X59400Y-42230D01*
X59400Y-42230D01*
X59400Y-42230D01*
G37*
G54D14*
X59164Y-32767D02*
X59164Y-32907D01*
X59173Y-32935D01*
X59192Y-32954D01*
X59220Y-32964D01*
X59239Y-32964D01*
X59070Y-32964D02*
X59070Y-32767D01*
X58995Y-32767D01*
X58976Y-32776D01*
X58967Y-32785D01*
X58957Y-32804D01*
X58957Y-32832D01*
X58967Y-32851D01*
X58976Y-32860D01*
X58995Y-32870D01*
X59070Y-32870D01*
X58770Y-32964D02*
X58882Y-32964D01*
X58826Y-32964D02*
X58826Y-32767D01*
X58845Y-32795D01*
X58863Y-32814D01*
X58882Y-32823D01*
X59778Y-32589D02*
X59872Y-32589D01*
X59872Y-32392D01*
X59712Y-32485D02*
X59647Y-32485D01*
X59619Y-32589D02*
X59712Y-32589D01*
X59712Y-32392D01*
X59619Y-32392D01*
X59534Y-32589D02*
X59534Y-32392D01*
X59487Y-32392D01*
X59459Y-32401D01*
X59440Y-32420D01*
X59431Y-32439D01*
X59422Y-32476D01*
X59422Y-32504D01*
X59431Y-32542D01*
X59440Y-32560D01*
X59459Y-32579D01*
X59487Y-32589D01*
X59534Y-32589D01*
X59384Y-32607D02*
X59234Y-32607D01*
X59131Y-32392D02*
X59131Y-32532D01*
X59140Y-32560D01*
X59159Y-32579D01*
X59187Y-32589D01*
X59206Y-32589D01*
X59037Y-32392D02*
X59037Y-32551D01*
X59028Y-32570D01*
X59018Y-32579D01*
X58999Y-32589D01*
X58962Y-32589D01*
X58943Y-32579D01*
X58934Y-32570D01*
X58924Y-32551D01*
X58924Y-32392D01*
X58831Y-32589D02*
X58831Y-32392D01*
X58765Y-32532D01*
X58699Y-32392D01*
X58699Y-32589D01*
X58605Y-32589D02*
X58605Y-32392D01*
X58530Y-32392D01*
X58512Y-32401D01*
X58502Y-32410D01*
X58493Y-32429D01*
X58493Y-32457D01*
X58502Y-32476D01*
X58512Y-32485D01*
X58530Y-32495D01*
X58605Y-32495D01*
X58408Y-32485D02*
X58343Y-32485D01*
X58315Y-32589D02*
X58408Y-32589D01*
X58408Y-32392D01*
X58315Y-32392D01*
X58118Y-32589D02*
X58183Y-32495D01*
X58230Y-32589D02*
X58230Y-32392D01*
X58155Y-32392D01*
X58136Y-32401D01*
X58127Y-32410D01*
X58118Y-32429D01*
X58118Y-32457D01*
X58127Y-32476D01*
X58136Y-32485D01*
X58155Y-32495D01*
X58230Y-32495D01*
M02*
