M48
INCH,TZ
T1C0.018
T2C0.025
T3C0.032
T4C0.040
%
G90
G05
T1
X59929Y-39229
T2
X54616Y-36150
X54632Y-29729
X55485Y-33398
X55500Y-38000
X55728Y-31671
X56036Y-36521
X56074Y-34035
X56500Y-34250
X57052Y-29937
X57315Y-38334
X57500Y-44000
X57800Y-35400
X57976Y-31378
X58000Y-34400
X59162Y-35523
X59750Y-33500
T3
X55500Y-41500
X55500Y-42500
X56000Y-44000
X56000Y-46000
X56500Y-32000
X56500Y-39500
X57500Y-32000
X58500Y-30500
X58500Y-32000
X58500Y-39500
X59000Y-44000
X59000Y-46000
X59500Y-30500
X59500Y-32000
X59500Y-41500
X59500Y-42500
T4
X54000Y-27500
X54000Y-28500
X54000Y-29500
X54000Y-30500
X54000Y-31500
X54000Y-32500
X54000Y-33500
X54000Y-34500
X54000Y-35500
X54000Y-36500
X54000Y-37500
X54000Y-38500
X54000Y-39500
X54000Y-40500
X54000Y-41500
X54000Y-42500
X54000Y-43500
X54000Y-44500
X54000Y-45500
X54000Y-46500
X55500Y-29500
X55500Y-30500
X56000Y-27500
X56500Y-29500
X56500Y-30500
X57000Y-27500
X57500Y-29500
X57500Y-30500
X58000Y-27500
X58500Y-29500
X59500Y-29500
X61000Y-27500
X61000Y-28500
X61000Y-29500
X61000Y-30500
X61000Y-31500
X61000Y-32500
X61000Y-33500
X61000Y-34500
X61000Y-35500
X61000Y-36500
X61000Y-37500
X61000Y-38500
X61000Y-39500
X61000Y-40500
X61000Y-41500
X61000Y-42500
X61000Y-43500
X61000Y-44500
X61000Y-45500
X61000Y-46500
T0
M30
