G04 (created by PCBNEW (2013-mar-13)-testing) date Wed 17 Sep 2014 03:38:06 PM PDT*
%MOIN*%
G04 Gerber Fmt 3.4, Leading zero omitted, Abs format*
%FSLAX34Y34*%
G01*
G70*
G90*
G04 APERTURE LIST*
%ADD10C,0.005906*%
%ADD11C,0.007874*%
%ADD12C,0.012000*%
%ADD13C,0.005000*%
%ADD14C,0.010000*%
%ADD15C,0.006000*%
%ADD16C,0.008000*%
%ADD17C,0.015000*%
%ADD18C,0.002400*%
%ADD19C,0.003500*%
%ADD20C,0.007500*%
G04 APERTURE END LIST*
G54D10*
X55201Y-28856D02*
X55201Y-28620D01*
X55302Y-28845D02*
X55336Y-28856D01*
X55392Y-28856D01*
X55415Y-28845D01*
X55426Y-28834D01*
X55437Y-28811D01*
X55437Y-28789D01*
X55426Y-28766D01*
X55415Y-28755D01*
X55392Y-28744D01*
X55347Y-28733D01*
X55325Y-28721D01*
X55313Y-28710D01*
X55302Y-28688D01*
X55302Y-28665D01*
X55313Y-28643D01*
X55325Y-28631D01*
X55347Y-28620D01*
X55403Y-28620D01*
X55437Y-28631D01*
X55538Y-28856D02*
X55538Y-28620D01*
X55628Y-28620D01*
X55651Y-28631D01*
X55662Y-28643D01*
X55673Y-28665D01*
X55673Y-28699D01*
X55662Y-28721D01*
X55651Y-28733D01*
X55628Y-28744D01*
X55538Y-28744D01*
X55718Y-28879D02*
X55898Y-28879D01*
X55955Y-28856D02*
X55955Y-28620D01*
X56044Y-28620D01*
X56067Y-28631D01*
X56078Y-28643D01*
X56089Y-28665D01*
X56089Y-28699D01*
X56078Y-28721D01*
X56067Y-28733D01*
X56044Y-28744D01*
X55955Y-28744D01*
X56326Y-28856D02*
X56247Y-28744D01*
X56191Y-28856D02*
X56191Y-28620D01*
X56281Y-28620D01*
X56303Y-28631D01*
X56314Y-28643D01*
X56326Y-28665D01*
X56326Y-28699D01*
X56314Y-28721D01*
X56303Y-28733D01*
X56281Y-28744D01*
X56191Y-28744D01*
X56472Y-28620D02*
X56517Y-28620D01*
X56539Y-28631D01*
X56562Y-28654D01*
X56573Y-28699D01*
X56573Y-28778D01*
X56562Y-28823D01*
X56539Y-28845D01*
X56517Y-28856D01*
X56472Y-28856D01*
X56449Y-28845D01*
X56427Y-28823D01*
X56416Y-28778D01*
X56416Y-28699D01*
X56427Y-28654D01*
X56449Y-28631D01*
X56472Y-28620D01*
X56798Y-28631D02*
X56776Y-28620D01*
X56742Y-28620D01*
X56708Y-28631D01*
X56686Y-28654D01*
X56674Y-28676D01*
X56663Y-28721D01*
X56663Y-28755D01*
X56674Y-28800D01*
X56686Y-28823D01*
X56708Y-28845D01*
X56742Y-28856D01*
X56764Y-28856D01*
X56798Y-28845D01*
X56809Y-28834D01*
X56809Y-28755D01*
X56764Y-28755D01*
X59185Y-28620D02*
X59263Y-28856D01*
X59342Y-28620D01*
X59556Y-28834D02*
X59544Y-28845D01*
X59511Y-28856D01*
X59488Y-28856D01*
X59455Y-28845D01*
X59432Y-28823D01*
X59421Y-28800D01*
X59410Y-28755D01*
X59410Y-28721D01*
X59421Y-28676D01*
X59432Y-28654D01*
X59455Y-28631D01*
X59488Y-28620D01*
X59511Y-28620D01*
X59544Y-28631D01*
X59556Y-28643D01*
X59792Y-28834D02*
X59781Y-28845D01*
X59747Y-28856D01*
X59724Y-28856D01*
X59691Y-28845D01*
X59668Y-28823D01*
X59657Y-28800D01*
X59646Y-28755D01*
X59646Y-28721D01*
X59657Y-28676D01*
X59668Y-28654D01*
X59691Y-28631D01*
X59724Y-28620D01*
X59747Y-28620D01*
X59781Y-28631D01*
X59792Y-28643D01*
X58320Y-28631D02*
X58297Y-28620D01*
X58263Y-28620D01*
X58230Y-28631D01*
X58207Y-28654D01*
X58196Y-28676D01*
X58185Y-28721D01*
X58185Y-28755D01*
X58196Y-28800D01*
X58207Y-28823D01*
X58230Y-28845D01*
X58263Y-28856D01*
X58286Y-28856D01*
X58320Y-28845D01*
X58331Y-28834D01*
X58331Y-28755D01*
X58286Y-28755D01*
X58432Y-28856D02*
X58432Y-28620D01*
X58567Y-28856D01*
X58567Y-28620D01*
X58679Y-28856D02*
X58679Y-28620D01*
X58736Y-28620D01*
X58769Y-28631D01*
X58792Y-28654D01*
X58803Y-28676D01*
X58814Y-28721D01*
X58814Y-28755D01*
X58803Y-28800D01*
X58792Y-28823D01*
X58769Y-28845D01*
X58736Y-28856D01*
X58679Y-28856D01*
X60356Y-46792D02*
X60120Y-46792D01*
X60120Y-46702D01*
X60131Y-46679D01*
X60143Y-46668D01*
X60165Y-46657D01*
X60199Y-46657D01*
X60221Y-46668D01*
X60233Y-46679D01*
X60244Y-46702D01*
X60244Y-46792D01*
X60334Y-46421D02*
X60345Y-46432D01*
X60356Y-46466D01*
X60356Y-46488D01*
X60345Y-46522D01*
X60323Y-46544D01*
X60300Y-46556D01*
X60255Y-46567D01*
X60221Y-46567D01*
X60176Y-46556D01*
X60154Y-46544D01*
X60131Y-46522D01*
X60120Y-46488D01*
X60120Y-46466D01*
X60131Y-46432D01*
X60143Y-46421D01*
X60120Y-46275D02*
X60120Y-46252D01*
X60131Y-46230D01*
X60143Y-46218D01*
X60165Y-46207D01*
X60210Y-46196D01*
X60266Y-46196D01*
X60311Y-46207D01*
X60334Y-46218D01*
X60345Y-46230D01*
X60356Y-46252D01*
X60356Y-46275D01*
X60345Y-46297D01*
X60334Y-46308D01*
X60311Y-46320D01*
X60266Y-46331D01*
X60210Y-46331D01*
X60165Y-46320D01*
X60143Y-46308D01*
X60131Y-46297D01*
X60120Y-46275D01*
X60356Y-45792D02*
X60120Y-45792D01*
X60120Y-45702D01*
X60131Y-45679D01*
X60143Y-45668D01*
X60165Y-45657D01*
X60199Y-45657D01*
X60221Y-45668D01*
X60233Y-45679D01*
X60244Y-45702D01*
X60244Y-45792D01*
X60334Y-45421D02*
X60345Y-45432D01*
X60356Y-45466D01*
X60356Y-45488D01*
X60345Y-45522D01*
X60323Y-45544D01*
X60300Y-45556D01*
X60255Y-45567D01*
X60221Y-45567D01*
X60176Y-45556D01*
X60154Y-45544D01*
X60131Y-45522D01*
X60120Y-45488D01*
X60120Y-45466D01*
X60131Y-45432D01*
X60143Y-45421D01*
X60356Y-45196D02*
X60356Y-45331D01*
X60356Y-45263D02*
X60120Y-45263D01*
X60154Y-45286D01*
X60176Y-45308D01*
X60188Y-45331D01*
X60356Y-44792D02*
X60120Y-44792D01*
X60120Y-44702D01*
X60131Y-44679D01*
X60143Y-44668D01*
X60165Y-44657D01*
X60199Y-44657D01*
X60221Y-44668D01*
X60233Y-44679D01*
X60244Y-44702D01*
X60244Y-44792D01*
X60334Y-44421D02*
X60345Y-44432D01*
X60356Y-44466D01*
X60356Y-44488D01*
X60345Y-44522D01*
X60323Y-44544D01*
X60300Y-44556D01*
X60255Y-44567D01*
X60221Y-44567D01*
X60176Y-44556D01*
X60154Y-44544D01*
X60131Y-44522D01*
X60120Y-44488D01*
X60120Y-44466D01*
X60131Y-44432D01*
X60143Y-44421D01*
X60143Y-44331D02*
X60131Y-44320D01*
X60120Y-44297D01*
X60120Y-44241D01*
X60131Y-44218D01*
X60143Y-44207D01*
X60165Y-44196D01*
X60188Y-44196D01*
X60221Y-44207D01*
X60356Y-44342D01*
X60356Y-44196D01*
X60356Y-43792D02*
X60120Y-43792D01*
X60120Y-43702D01*
X60131Y-43679D01*
X60143Y-43668D01*
X60165Y-43657D01*
X60199Y-43657D01*
X60221Y-43668D01*
X60233Y-43679D01*
X60244Y-43702D01*
X60244Y-43792D01*
X60334Y-43421D02*
X60345Y-43432D01*
X60356Y-43466D01*
X60356Y-43488D01*
X60345Y-43522D01*
X60323Y-43544D01*
X60300Y-43556D01*
X60255Y-43567D01*
X60221Y-43567D01*
X60176Y-43556D01*
X60154Y-43544D01*
X60131Y-43522D01*
X60120Y-43488D01*
X60120Y-43466D01*
X60131Y-43432D01*
X60143Y-43421D01*
X60120Y-43342D02*
X60120Y-43196D01*
X60210Y-43275D01*
X60210Y-43241D01*
X60221Y-43218D01*
X60233Y-43207D01*
X60255Y-43196D01*
X60311Y-43196D01*
X60334Y-43207D01*
X60345Y-43218D01*
X60356Y-43241D01*
X60356Y-43308D01*
X60345Y-43331D01*
X60334Y-43342D01*
X60356Y-42792D02*
X60120Y-42792D01*
X60120Y-42702D01*
X60131Y-42679D01*
X60143Y-42668D01*
X60165Y-42657D01*
X60199Y-42657D01*
X60221Y-42668D01*
X60233Y-42679D01*
X60244Y-42702D01*
X60244Y-42792D01*
X60334Y-42421D02*
X60345Y-42432D01*
X60356Y-42466D01*
X60356Y-42488D01*
X60345Y-42522D01*
X60323Y-42544D01*
X60300Y-42556D01*
X60255Y-42567D01*
X60221Y-42567D01*
X60176Y-42556D01*
X60154Y-42544D01*
X60131Y-42522D01*
X60120Y-42488D01*
X60120Y-42466D01*
X60131Y-42432D01*
X60143Y-42421D01*
X60199Y-42218D02*
X60356Y-42218D01*
X60109Y-42275D02*
X60278Y-42331D01*
X60278Y-42185D01*
X60356Y-41792D02*
X60120Y-41792D01*
X60120Y-41702D01*
X60131Y-41679D01*
X60143Y-41668D01*
X60165Y-41657D01*
X60199Y-41657D01*
X60221Y-41668D01*
X60233Y-41679D01*
X60244Y-41702D01*
X60244Y-41792D01*
X60334Y-41421D02*
X60345Y-41432D01*
X60356Y-41466D01*
X60356Y-41488D01*
X60345Y-41522D01*
X60323Y-41544D01*
X60300Y-41556D01*
X60255Y-41567D01*
X60221Y-41567D01*
X60176Y-41556D01*
X60154Y-41544D01*
X60131Y-41522D01*
X60120Y-41488D01*
X60120Y-41466D01*
X60131Y-41432D01*
X60143Y-41421D01*
X60120Y-41207D02*
X60120Y-41320D01*
X60233Y-41331D01*
X60221Y-41320D01*
X60210Y-41297D01*
X60210Y-41241D01*
X60221Y-41218D01*
X60233Y-41207D01*
X60255Y-41196D01*
X60311Y-41196D01*
X60334Y-41207D01*
X60345Y-41218D01*
X60356Y-41241D01*
X60356Y-41297D01*
X60345Y-41320D01*
X60334Y-41331D01*
X60356Y-40792D02*
X60120Y-40792D01*
X60120Y-40702D01*
X60131Y-40679D01*
X60143Y-40668D01*
X60165Y-40657D01*
X60199Y-40657D01*
X60221Y-40668D01*
X60233Y-40679D01*
X60244Y-40702D01*
X60244Y-40792D01*
X60334Y-40421D02*
X60345Y-40432D01*
X60356Y-40466D01*
X60356Y-40488D01*
X60345Y-40522D01*
X60323Y-40544D01*
X60300Y-40556D01*
X60255Y-40567D01*
X60221Y-40567D01*
X60176Y-40556D01*
X60154Y-40544D01*
X60131Y-40522D01*
X60120Y-40488D01*
X60120Y-40466D01*
X60131Y-40432D01*
X60143Y-40421D01*
X60120Y-40218D02*
X60120Y-40263D01*
X60131Y-40286D01*
X60143Y-40297D01*
X60176Y-40320D01*
X60221Y-40331D01*
X60311Y-40331D01*
X60334Y-40320D01*
X60345Y-40308D01*
X60356Y-40286D01*
X60356Y-40241D01*
X60345Y-40218D01*
X60334Y-40207D01*
X60311Y-40196D01*
X60255Y-40196D01*
X60233Y-40207D01*
X60221Y-40218D01*
X60210Y-40241D01*
X60210Y-40286D01*
X60221Y-40308D01*
X60233Y-40320D01*
X60255Y-40331D01*
X60356Y-39792D02*
X60120Y-39792D01*
X60120Y-39702D01*
X60131Y-39679D01*
X60143Y-39668D01*
X60165Y-39657D01*
X60199Y-39657D01*
X60221Y-39668D01*
X60233Y-39679D01*
X60244Y-39702D01*
X60244Y-39792D01*
X60334Y-39421D02*
X60345Y-39432D01*
X60356Y-39466D01*
X60356Y-39488D01*
X60345Y-39522D01*
X60323Y-39544D01*
X60300Y-39556D01*
X60255Y-39567D01*
X60221Y-39567D01*
X60176Y-39556D01*
X60154Y-39544D01*
X60131Y-39522D01*
X60120Y-39488D01*
X60120Y-39466D01*
X60131Y-39432D01*
X60143Y-39421D01*
X60120Y-39342D02*
X60120Y-39185D01*
X60356Y-39286D01*
X60356Y-38781D02*
X60120Y-38781D01*
X60120Y-38691D01*
X60131Y-38668D01*
X60143Y-38657D01*
X60165Y-38646D01*
X60199Y-38646D01*
X60221Y-38657D01*
X60233Y-38668D01*
X60244Y-38691D01*
X60244Y-38781D01*
X60233Y-38544D02*
X60233Y-38466D01*
X60356Y-38432D02*
X60356Y-38544D01*
X60120Y-38544D01*
X60120Y-38432D01*
X60143Y-38342D02*
X60131Y-38331D01*
X60120Y-38308D01*
X60120Y-38252D01*
X60131Y-38230D01*
X60143Y-38218D01*
X60165Y-38207D01*
X60188Y-38207D01*
X60221Y-38218D01*
X60356Y-38353D01*
X60356Y-38207D01*
X60356Y-37781D02*
X60120Y-37781D01*
X60120Y-37691D01*
X60131Y-37668D01*
X60143Y-37657D01*
X60165Y-37646D01*
X60199Y-37646D01*
X60221Y-37657D01*
X60233Y-37668D01*
X60244Y-37691D01*
X60244Y-37781D01*
X60233Y-37544D02*
X60233Y-37466D01*
X60356Y-37432D02*
X60356Y-37544D01*
X60120Y-37544D01*
X60120Y-37432D01*
X60356Y-37207D02*
X60356Y-37342D01*
X60356Y-37275D02*
X60120Y-37275D01*
X60154Y-37297D01*
X60176Y-37320D01*
X60188Y-37342D01*
X60356Y-36781D02*
X60120Y-36781D01*
X60120Y-36691D01*
X60131Y-36668D01*
X60143Y-36657D01*
X60165Y-36646D01*
X60199Y-36646D01*
X60221Y-36657D01*
X60233Y-36668D01*
X60244Y-36691D01*
X60244Y-36781D01*
X60233Y-36544D02*
X60233Y-36466D01*
X60356Y-36432D02*
X60356Y-36544D01*
X60120Y-36544D01*
X60120Y-36432D01*
X60120Y-36286D02*
X60120Y-36263D01*
X60131Y-36241D01*
X60143Y-36230D01*
X60165Y-36218D01*
X60210Y-36207D01*
X60266Y-36207D01*
X60311Y-36218D01*
X60334Y-36230D01*
X60345Y-36241D01*
X60356Y-36263D01*
X60356Y-36286D01*
X60345Y-36308D01*
X60334Y-36320D01*
X60311Y-36331D01*
X60266Y-36342D01*
X60210Y-36342D01*
X60165Y-36331D01*
X60143Y-36320D01*
X60131Y-36308D01*
X60120Y-36286D01*
X60356Y-35775D02*
X60120Y-35775D01*
X60120Y-35685D01*
X60131Y-35663D01*
X60143Y-35651D01*
X60165Y-35640D01*
X60199Y-35640D01*
X60221Y-35651D01*
X60233Y-35663D01*
X60244Y-35685D01*
X60244Y-35775D01*
X60289Y-35550D02*
X60289Y-35438D01*
X60356Y-35573D02*
X60120Y-35494D01*
X60356Y-35415D01*
X60120Y-35359D02*
X60120Y-35201D01*
X60356Y-35303D01*
X60356Y-34775D02*
X60120Y-34775D01*
X60120Y-34685D01*
X60131Y-34663D01*
X60143Y-34651D01*
X60165Y-34640D01*
X60199Y-34640D01*
X60221Y-34651D01*
X60233Y-34663D01*
X60244Y-34685D01*
X60244Y-34775D01*
X60289Y-34550D02*
X60289Y-34438D01*
X60356Y-34573D02*
X60120Y-34494D01*
X60356Y-34415D01*
X60120Y-34235D02*
X60120Y-34280D01*
X60131Y-34303D01*
X60143Y-34314D01*
X60176Y-34336D01*
X60221Y-34348D01*
X60311Y-34348D01*
X60334Y-34336D01*
X60345Y-34325D01*
X60356Y-34303D01*
X60356Y-34258D01*
X60345Y-34235D01*
X60334Y-34224D01*
X60311Y-34213D01*
X60255Y-34213D01*
X60233Y-34224D01*
X60221Y-34235D01*
X60210Y-34258D01*
X60210Y-34303D01*
X60221Y-34325D01*
X60233Y-34336D01*
X60255Y-34348D01*
X60356Y-33775D02*
X60120Y-33775D01*
X60120Y-33685D01*
X60131Y-33663D01*
X60143Y-33651D01*
X60165Y-33640D01*
X60199Y-33640D01*
X60221Y-33651D01*
X60233Y-33663D01*
X60244Y-33685D01*
X60244Y-33775D01*
X60289Y-33550D02*
X60289Y-33438D01*
X60356Y-33573D02*
X60120Y-33494D01*
X60356Y-33415D01*
X60120Y-33224D02*
X60120Y-33336D01*
X60233Y-33348D01*
X60221Y-33336D01*
X60210Y-33314D01*
X60210Y-33258D01*
X60221Y-33235D01*
X60233Y-33224D01*
X60255Y-33213D01*
X60311Y-33213D01*
X60334Y-33224D01*
X60345Y-33235D01*
X60356Y-33258D01*
X60356Y-33314D01*
X60345Y-33336D01*
X60334Y-33348D01*
X60356Y-32775D02*
X60120Y-32775D01*
X60120Y-32685D01*
X60131Y-32663D01*
X60143Y-32651D01*
X60165Y-32640D01*
X60199Y-32640D01*
X60221Y-32651D01*
X60233Y-32663D01*
X60244Y-32685D01*
X60244Y-32775D01*
X60289Y-32550D02*
X60289Y-32438D01*
X60356Y-32573D02*
X60120Y-32494D01*
X60356Y-32415D01*
X60199Y-32235D02*
X60356Y-32235D01*
X60109Y-32291D02*
X60278Y-32348D01*
X60278Y-32201D01*
X60356Y-31775D02*
X60120Y-31775D01*
X60120Y-31685D01*
X60131Y-31663D01*
X60143Y-31651D01*
X60165Y-31640D01*
X60199Y-31640D01*
X60221Y-31651D01*
X60233Y-31663D01*
X60244Y-31685D01*
X60244Y-31775D01*
X60289Y-31550D02*
X60289Y-31438D01*
X60356Y-31573D02*
X60120Y-31494D01*
X60356Y-31415D01*
X60120Y-31359D02*
X60120Y-31213D01*
X60210Y-31291D01*
X60210Y-31258D01*
X60221Y-31235D01*
X60233Y-31224D01*
X60255Y-31213D01*
X60311Y-31213D01*
X60334Y-31224D01*
X60345Y-31235D01*
X60356Y-31258D01*
X60356Y-31325D01*
X60345Y-31348D01*
X60334Y-31359D01*
X60356Y-30775D02*
X60120Y-30775D01*
X60120Y-30685D01*
X60131Y-30663D01*
X60143Y-30651D01*
X60165Y-30640D01*
X60199Y-30640D01*
X60221Y-30651D01*
X60233Y-30663D01*
X60244Y-30685D01*
X60244Y-30775D01*
X60289Y-30550D02*
X60289Y-30438D01*
X60356Y-30573D02*
X60120Y-30494D01*
X60356Y-30415D01*
X60143Y-30348D02*
X60131Y-30336D01*
X60120Y-30314D01*
X60120Y-30258D01*
X60131Y-30235D01*
X60143Y-30224D01*
X60165Y-30213D01*
X60188Y-30213D01*
X60221Y-30224D01*
X60356Y-30359D01*
X60356Y-30213D01*
X60356Y-29775D02*
X60120Y-29775D01*
X60120Y-29685D01*
X60131Y-29663D01*
X60143Y-29651D01*
X60165Y-29640D01*
X60199Y-29640D01*
X60221Y-29651D01*
X60233Y-29663D01*
X60244Y-29685D01*
X60244Y-29775D01*
X60289Y-29550D02*
X60289Y-29438D01*
X60356Y-29573D02*
X60120Y-29494D01*
X60356Y-29415D01*
X60356Y-29213D02*
X60356Y-29348D01*
X60356Y-29280D02*
X60120Y-29280D01*
X60154Y-29303D01*
X60176Y-29325D01*
X60188Y-29348D01*
X60356Y-28775D02*
X60120Y-28775D01*
X60120Y-28685D01*
X60131Y-28663D01*
X60143Y-28651D01*
X60165Y-28640D01*
X60199Y-28640D01*
X60221Y-28651D01*
X60233Y-28663D01*
X60244Y-28685D01*
X60244Y-28775D01*
X60289Y-28550D02*
X60289Y-28438D01*
X60356Y-28573D02*
X60120Y-28494D01*
X60356Y-28415D01*
X60120Y-28291D02*
X60120Y-28269D01*
X60131Y-28246D01*
X60143Y-28235D01*
X60165Y-28224D01*
X60210Y-28213D01*
X60266Y-28213D01*
X60311Y-28224D01*
X60334Y-28235D01*
X60345Y-28246D01*
X60356Y-28269D01*
X60356Y-28291D01*
X60345Y-28314D01*
X60334Y-28325D01*
X60311Y-28336D01*
X60266Y-28348D01*
X60210Y-28348D01*
X60165Y-28336D01*
X60143Y-28325D01*
X60131Y-28314D01*
X60120Y-28291D01*
X60120Y-27814D02*
X60356Y-27736D01*
X60120Y-27657D01*
X60334Y-27443D02*
X60345Y-27455D01*
X60356Y-27488D01*
X60356Y-27511D01*
X60345Y-27544D01*
X60323Y-27567D01*
X60300Y-27578D01*
X60255Y-27589D01*
X60221Y-27589D01*
X60176Y-27578D01*
X60154Y-27567D01*
X60131Y-27544D01*
X60120Y-27511D01*
X60120Y-27488D01*
X60131Y-27455D01*
X60143Y-27443D01*
X60334Y-27207D02*
X60345Y-27218D01*
X60356Y-27252D01*
X60356Y-27275D01*
X60345Y-27308D01*
X60323Y-27331D01*
X60300Y-27342D01*
X60255Y-27353D01*
X60221Y-27353D01*
X60176Y-27342D01*
X60154Y-27331D01*
X60131Y-27308D01*
X60120Y-27275D01*
X60120Y-27252D01*
X60131Y-27218D01*
X60143Y-27207D01*
X54868Y-46320D02*
X54879Y-46297D01*
X54879Y-46263D01*
X54868Y-46230D01*
X54845Y-46207D01*
X54823Y-46196D01*
X54778Y-46185D01*
X54744Y-46185D01*
X54699Y-46196D01*
X54676Y-46207D01*
X54654Y-46230D01*
X54643Y-46263D01*
X54643Y-46286D01*
X54654Y-46320D01*
X54665Y-46331D01*
X54744Y-46331D01*
X54744Y-46286D01*
X54643Y-46432D02*
X54879Y-46432D01*
X54643Y-46567D01*
X54879Y-46567D01*
X54643Y-46679D02*
X54879Y-46679D01*
X54879Y-46736D01*
X54868Y-46769D01*
X54845Y-46792D01*
X54823Y-46803D01*
X54778Y-46814D01*
X54744Y-46814D01*
X54699Y-46803D01*
X54676Y-46792D01*
X54654Y-46769D01*
X54643Y-46736D01*
X54643Y-46679D01*
X54879Y-45021D02*
X54643Y-45179D01*
X54879Y-45179D02*
X54643Y-45021D01*
X54879Y-45235D02*
X54879Y-45370D01*
X54643Y-45303D02*
X54879Y-45303D01*
X54710Y-45438D02*
X54710Y-45550D01*
X54643Y-45415D02*
X54879Y-45494D01*
X54643Y-45573D01*
X54643Y-45764D02*
X54643Y-45651D01*
X54879Y-45651D01*
X54643Y-45966D02*
X54643Y-45831D01*
X54643Y-45899D02*
X54879Y-45899D01*
X54845Y-45876D01*
X54823Y-45854D01*
X54811Y-45831D01*
X54879Y-44021D02*
X54643Y-44179D01*
X54879Y-44179D02*
X54643Y-44021D01*
X54879Y-44235D02*
X54879Y-44370D01*
X54643Y-44303D02*
X54879Y-44303D01*
X54710Y-44438D02*
X54710Y-44550D01*
X54643Y-44415D02*
X54879Y-44494D01*
X54643Y-44573D01*
X54643Y-44764D02*
X54643Y-44651D01*
X54879Y-44651D01*
X54856Y-44831D02*
X54868Y-44843D01*
X54879Y-44865D01*
X54879Y-44921D01*
X54868Y-44944D01*
X54856Y-44955D01*
X54834Y-44966D01*
X54811Y-44966D01*
X54778Y-44955D01*
X54643Y-44820D01*
X54643Y-44966D01*
X54643Y-43207D02*
X54879Y-43207D01*
X54879Y-43297D01*
X54868Y-43320D01*
X54856Y-43331D01*
X54834Y-43342D01*
X54800Y-43342D01*
X54778Y-43331D01*
X54766Y-43320D01*
X54755Y-43297D01*
X54755Y-43207D01*
X54643Y-43443D02*
X54879Y-43443D01*
X54879Y-43500D01*
X54868Y-43533D01*
X54845Y-43556D01*
X54823Y-43567D01*
X54778Y-43578D01*
X54744Y-43578D01*
X54699Y-43567D01*
X54676Y-43556D01*
X54654Y-43533D01*
X54643Y-43500D01*
X54643Y-43443D01*
X54879Y-43657D02*
X54879Y-43814D01*
X54643Y-43713D01*
X54643Y-42207D02*
X54879Y-42207D01*
X54879Y-42297D01*
X54868Y-42320D01*
X54856Y-42331D01*
X54834Y-42342D01*
X54800Y-42342D01*
X54778Y-42331D01*
X54766Y-42320D01*
X54755Y-42297D01*
X54755Y-42207D01*
X54643Y-42443D02*
X54879Y-42443D01*
X54879Y-42500D01*
X54868Y-42533D01*
X54845Y-42556D01*
X54823Y-42567D01*
X54778Y-42578D01*
X54744Y-42578D01*
X54699Y-42567D01*
X54676Y-42556D01*
X54654Y-42533D01*
X54643Y-42500D01*
X54643Y-42443D01*
X54879Y-42781D02*
X54879Y-42736D01*
X54868Y-42713D01*
X54856Y-42702D01*
X54823Y-42679D01*
X54778Y-42668D01*
X54688Y-42668D01*
X54665Y-42679D01*
X54654Y-42691D01*
X54643Y-42713D01*
X54643Y-42758D01*
X54654Y-42781D01*
X54665Y-42792D01*
X54688Y-42803D01*
X54744Y-42803D01*
X54766Y-42792D01*
X54778Y-42781D01*
X54789Y-42758D01*
X54789Y-42713D01*
X54778Y-42691D01*
X54766Y-42679D01*
X54744Y-42668D01*
X54643Y-41207D02*
X54879Y-41207D01*
X54879Y-41297D01*
X54868Y-41320D01*
X54856Y-41331D01*
X54834Y-41342D01*
X54800Y-41342D01*
X54778Y-41331D01*
X54766Y-41320D01*
X54755Y-41297D01*
X54755Y-41207D01*
X54643Y-41443D02*
X54879Y-41443D01*
X54879Y-41500D01*
X54868Y-41533D01*
X54845Y-41556D01*
X54823Y-41567D01*
X54778Y-41578D01*
X54744Y-41578D01*
X54699Y-41567D01*
X54676Y-41556D01*
X54654Y-41533D01*
X54643Y-41500D01*
X54643Y-41443D01*
X54879Y-41792D02*
X54879Y-41679D01*
X54766Y-41668D01*
X54778Y-41679D01*
X54789Y-41702D01*
X54789Y-41758D01*
X54778Y-41781D01*
X54766Y-41792D01*
X54744Y-41803D01*
X54688Y-41803D01*
X54665Y-41792D01*
X54654Y-41781D01*
X54643Y-41758D01*
X54643Y-41702D01*
X54654Y-41679D01*
X54665Y-41668D01*
X54643Y-40207D02*
X54879Y-40207D01*
X54879Y-40297D01*
X54868Y-40320D01*
X54856Y-40331D01*
X54834Y-40342D01*
X54800Y-40342D01*
X54778Y-40331D01*
X54766Y-40320D01*
X54755Y-40297D01*
X54755Y-40207D01*
X54643Y-40443D02*
X54879Y-40443D01*
X54879Y-40500D01*
X54868Y-40533D01*
X54845Y-40556D01*
X54823Y-40567D01*
X54778Y-40578D01*
X54744Y-40578D01*
X54699Y-40567D01*
X54676Y-40556D01*
X54654Y-40533D01*
X54643Y-40500D01*
X54643Y-40443D01*
X54800Y-40781D02*
X54643Y-40781D01*
X54890Y-40724D02*
X54721Y-40668D01*
X54721Y-40814D01*
X54643Y-39207D02*
X54879Y-39207D01*
X54879Y-39297D01*
X54868Y-39320D01*
X54856Y-39331D01*
X54834Y-39342D01*
X54800Y-39342D01*
X54778Y-39331D01*
X54766Y-39320D01*
X54755Y-39297D01*
X54755Y-39207D01*
X54643Y-39443D02*
X54879Y-39443D01*
X54879Y-39500D01*
X54868Y-39533D01*
X54845Y-39556D01*
X54823Y-39567D01*
X54778Y-39578D01*
X54744Y-39578D01*
X54699Y-39567D01*
X54676Y-39556D01*
X54654Y-39533D01*
X54643Y-39500D01*
X54643Y-39443D01*
X54879Y-39657D02*
X54879Y-39803D01*
X54789Y-39724D01*
X54789Y-39758D01*
X54778Y-39781D01*
X54766Y-39792D01*
X54744Y-39803D01*
X54688Y-39803D01*
X54665Y-39792D01*
X54654Y-39781D01*
X54643Y-39758D01*
X54643Y-39691D01*
X54654Y-39668D01*
X54665Y-39657D01*
X54643Y-38207D02*
X54879Y-38207D01*
X54879Y-38297D01*
X54868Y-38320D01*
X54856Y-38331D01*
X54834Y-38342D01*
X54800Y-38342D01*
X54778Y-38331D01*
X54766Y-38320D01*
X54755Y-38297D01*
X54755Y-38207D01*
X54643Y-38443D02*
X54879Y-38443D01*
X54879Y-38500D01*
X54868Y-38533D01*
X54845Y-38556D01*
X54823Y-38567D01*
X54778Y-38578D01*
X54744Y-38578D01*
X54699Y-38567D01*
X54676Y-38556D01*
X54654Y-38533D01*
X54643Y-38500D01*
X54643Y-38443D01*
X54856Y-38668D02*
X54868Y-38679D01*
X54879Y-38702D01*
X54879Y-38758D01*
X54868Y-38781D01*
X54856Y-38792D01*
X54834Y-38803D01*
X54811Y-38803D01*
X54778Y-38792D01*
X54643Y-38657D01*
X54643Y-38803D01*
X54643Y-37207D02*
X54879Y-37207D01*
X54879Y-37297D01*
X54868Y-37320D01*
X54856Y-37331D01*
X54834Y-37342D01*
X54800Y-37342D01*
X54778Y-37331D01*
X54766Y-37320D01*
X54755Y-37297D01*
X54755Y-37207D01*
X54643Y-37443D02*
X54879Y-37443D01*
X54879Y-37500D01*
X54868Y-37533D01*
X54845Y-37556D01*
X54823Y-37567D01*
X54778Y-37578D01*
X54744Y-37578D01*
X54699Y-37567D01*
X54676Y-37556D01*
X54654Y-37533D01*
X54643Y-37500D01*
X54643Y-37443D01*
X54643Y-37803D02*
X54643Y-37668D01*
X54643Y-37736D02*
X54879Y-37736D01*
X54845Y-37713D01*
X54823Y-37691D01*
X54811Y-37668D01*
X54643Y-36207D02*
X54879Y-36207D01*
X54879Y-36297D01*
X54868Y-36320D01*
X54856Y-36331D01*
X54834Y-36342D01*
X54800Y-36342D01*
X54778Y-36331D01*
X54766Y-36320D01*
X54755Y-36297D01*
X54755Y-36207D01*
X54643Y-36443D02*
X54879Y-36443D01*
X54879Y-36500D01*
X54868Y-36533D01*
X54845Y-36556D01*
X54823Y-36567D01*
X54778Y-36578D01*
X54744Y-36578D01*
X54699Y-36567D01*
X54676Y-36556D01*
X54654Y-36533D01*
X54643Y-36500D01*
X54643Y-36443D01*
X54879Y-36724D02*
X54879Y-36747D01*
X54868Y-36769D01*
X54856Y-36781D01*
X54834Y-36792D01*
X54789Y-36803D01*
X54733Y-36803D01*
X54688Y-36792D01*
X54665Y-36781D01*
X54654Y-36769D01*
X54643Y-36747D01*
X54643Y-36724D01*
X54654Y-36702D01*
X54665Y-36691D01*
X54688Y-36679D01*
X54733Y-36668D01*
X54789Y-36668D01*
X54834Y-36679D01*
X54856Y-36691D01*
X54868Y-36702D01*
X54879Y-36724D01*
X54643Y-35370D02*
X54755Y-35291D01*
X54643Y-35235D02*
X54879Y-35235D01*
X54879Y-35325D01*
X54868Y-35348D01*
X54856Y-35359D01*
X54834Y-35370D01*
X54800Y-35370D01*
X54778Y-35359D01*
X54766Y-35348D01*
X54755Y-35325D01*
X54755Y-35235D01*
X54654Y-35460D02*
X54643Y-35494D01*
X54643Y-35550D01*
X54654Y-35573D01*
X54665Y-35584D01*
X54688Y-35595D01*
X54710Y-35595D01*
X54733Y-35584D01*
X54744Y-35573D01*
X54755Y-35550D01*
X54766Y-35505D01*
X54778Y-35483D01*
X54789Y-35471D01*
X54811Y-35460D01*
X54834Y-35460D01*
X54856Y-35471D01*
X54868Y-35483D01*
X54879Y-35505D01*
X54879Y-35561D01*
X54868Y-35595D01*
X54879Y-35663D02*
X54879Y-35798D01*
X54643Y-35730D02*
X54879Y-35730D01*
X54643Y-34207D02*
X54879Y-34207D01*
X54879Y-34297D01*
X54868Y-34320D01*
X54856Y-34331D01*
X54834Y-34342D01*
X54800Y-34342D01*
X54778Y-34331D01*
X54766Y-34320D01*
X54755Y-34297D01*
X54755Y-34207D01*
X54766Y-34522D02*
X54755Y-34556D01*
X54744Y-34567D01*
X54721Y-34578D01*
X54688Y-34578D01*
X54665Y-34567D01*
X54654Y-34556D01*
X54643Y-34533D01*
X54643Y-34443D01*
X54879Y-34443D01*
X54879Y-34522D01*
X54868Y-34544D01*
X54856Y-34556D01*
X54834Y-34567D01*
X54811Y-34567D01*
X54789Y-34556D01*
X54778Y-34544D01*
X54766Y-34522D01*
X54766Y-34443D01*
X54879Y-34657D02*
X54879Y-34814D01*
X54643Y-34713D01*
X54643Y-33207D02*
X54879Y-33207D01*
X54879Y-33297D01*
X54868Y-33320D01*
X54856Y-33331D01*
X54834Y-33342D01*
X54800Y-33342D01*
X54778Y-33331D01*
X54766Y-33320D01*
X54755Y-33297D01*
X54755Y-33207D01*
X54766Y-33522D02*
X54755Y-33556D01*
X54744Y-33567D01*
X54721Y-33578D01*
X54688Y-33578D01*
X54665Y-33567D01*
X54654Y-33556D01*
X54643Y-33533D01*
X54643Y-33443D01*
X54879Y-33443D01*
X54879Y-33522D01*
X54868Y-33544D01*
X54856Y-33556D01*
X54834Y-33567D01*
X54811Y-33567D01*
X54789Y-33556D01*
X54778Y-33544D01*
X54766Y-33522D01*
X54766Y-33443D01*
X54879Y-33781D02*
X54879Y-33736D01*
X54868Y-33713D01*
X54856Y-33702D01*
X54823Y-33679D01*
X54778Y-33668D01*
X54688Y-33668D01*
X54665Y-33679D01*
X54654Y-33691D01*
X54643Y-33713D01*
X54643Y-33758D01*
X54654Y-33781D01*
X54665Y-33792D01*
X54688Y-33803D01*
X54744Y-33803D01*
X54766Y-33792D01*
X54778Y-33781D01*
X54789Y-33758D01*
X54789Y-33713D01*
X54778Y-33691D01*
X54766Y-33679D01*
X54744Y-33668D01*
X54643Y-32207D02*
X54879Y-32207D01*
X54879Y-32297D01*
X54868Y-32320D01*
X54856Y-32331D01*
X54834Y-32342D01*
X54800Y-32342D01*
X54778Y-32331D01*
X54766Y-32320D01*
X54755Y-32297D01*
X54755Y-32207D01*
X54766Y-32522D02*
X54755Y-32556D01*
X54744Y-32567D01*
X54721Y-32578D01*
X54688Y-32578D01*
X54665Y-32567D01*
X54654Y-32556D01*
X54643Y-32533D01*
X54643Y-32443D01*
X54879Y-32443D01*
X54879Y-32522D01*
X54868Y-32544D01*
X54856Y-32556D01*
X54834Y-32567D01*
X54811Y-32567D01*
X54789Y-32556D01*
X54778Y-32544D01*
X54766Y-32522D01*
X54766Y-32443D01*
X54879Y-32792D02*
X54879Y-32679D01*
X54766Y-32668D01*
X54778Y-32679D01*
X54789Y-32702D01*
X54789Y-32758D01*
X54778Y-32781D01*
X54766Y-32792D01*
X54744Y-32803D01*
X54688Y-32803D01*
X54665Y-32792D01*
X54654Y-32781D01*
X54643Y-32758D01*
X54643Y-32702D01*
X54654Y-32679D01*
X54665Y-32668D01*
X54643Y-31207D02*
X54879Y-31207D01*
X54879Y-31297D01*
X54868Y-31320D01*
X54856Y-31331D01*
X54834Y-31342D01*
X54800Y-31342D01*
X54778Y-31331D01*
X54766Y-31320D01*
X54755Y-31297D01*
X54755Y-31207D01*
X54766Y-31522D02*
X54755Y-31556D01*
X54744Y-31567D01*
X54721Y-31578D01*
X54688Y-31578D01*
X54665Y-31567D01*
X54654Y-31556D01*
X54643Y-31533D01*
X54643Y-31443D01*
X54879Y-31443D01*
X54879Y-31522D01*
X54868Y-31544D01*
X54856Y-31556D01*
X54834Y-31567D01*
X54811Y-31567D01*
X54789Y-31556D01*
X54778Y-31544D01*
X54766Y-31522D01*
X54766Y-31443D01*
X54800Y-31781D02*
X54643Y-31781D01*
X54890Y-31724D02*
X54721Y-31668D01*
X54721Y-31814D01*
X54643Y-30207D02*
X54879Y-30207D01*
X54879Y-30297D01*
X54868Y-30320D01*
X54856Y-30331D01*
X54834Y-30342D01*
X54800Y-30342D01*
X54778Y-30331D01*
X54766Y-30320D01*
X54755Y-30297D01*
X54755Y-30207D01*
X54766Y-30522D02*
X54755Y-30556D01*
X54744Y-30567D01*
X54721Y-30578D01*
X54688Y-30578D01*
X54665Y-30567D01*
X54654Y-30556D01*
X54643Y-30533D01*
X54643Y-30443D01*
X54879Y-30443D01*
X54879Y-30522D01*
X54868Y-30544D01*
X54856Y-30556D01*
X54834Y-30567D01*
X54811Y-30567D01*
X54789Y-30556D01*
X54778Y-30544D01*
X54766Y-30522D01*
X54766Y-30443D01*
X54879Y-30657D02*
X54879Y-30803D01*
X54789Y-30724D01*
X54789Y-30758D01*
X54778Y-30781D01*
X54766Y-30792D01*
X54744Y-30803D01*
X54688Y-30803D01*
X54665Y-30792D01*
X54654Y-30781D01*
X54643Y-30758D01*
X54643Y-30691D01*
X54654Y-30668D01*
X54665Y-30657D01*
X54643Y-29207D02*
X54879Y-29207D01*
X54879Y-29297D01*
X54868Y-29320D01*
X54856Y-29331D01*
X54834Y-29342D01*
X54800Y-29342D01*
X54778Y-29331D01*
X54766Y-29320D01*
X54755Y-29297D01*
X54755Y-29207D01*
X54766Y-29522D02*
X54755Y-29556D01*
X54744Y-29567D01*
X54721Y-29578D01*
X54688Y-29578D01*
X54665Y-29567D01*
X54654Y-29556D01*
X54643Y-29533D01*
X54643Y-29443D01*
X54879Y-29443D01*
X54879Y-29522D01*
X54868Y-29544D01*
X54856Y-29556D01*
X54834Y-29567D01*
X54811Y-29567D01*
X54789Y-29556D01*
X54778Y-29544D01*
X54766Y-29522D01*
X54766Y-29443D01*
X54856Y-29668D02*
X54868Y-29679D01*
X54879Y-29702D01*
X54879Y-29758D01*
X54868Y-29781D01*
X54856Y-29792D01*
X54834Y-29803D01*
X54811Y-29803D01*
X54778Y-29792D01*
X54643Y-29657D01*
X54643Y-29803D01*
X54643Y-28207D02*
X54879Y-28207D01*
X54879Y-28297D01*
X54868Y-28320D01*
X54856Y-28331D01*
X54834Y-28342D01*
X54800Y-28342D01*
X54778Y-28331D01*
X54766Y-28320D01*
X54755Y-28297D01*
X54755Y-28207D01*
X54766Y-28522D02*
X54755Y-28556D01*
X54744Y-28567D01*
X54721Y-28578D01*
X54688Y-28578D01*
X54665Y-28567D01*
X54654Y-28556D01*
X54643Y-28533D01*
X54643Y-28443D01*
X54879Y-28443D01*
X54879Y-28522D01*
X54868Y-28544D01*
X54856Y-28556D01*
X54834Y-28567D01*
X54811Y-28567D01*
X54789Y-28556D01*
X54778Y-28544D01*
X54766Y-28522D01*
X54766Y-28443D01*
X54643Y-28803D02*
X54643Y-28668D01*
X54643Y-28736D02*
X54879Y-28736D01*
X54845Y-28713D01*
X54823Y-28691D01*
X54811Y-28668D01*
X54643Y-27207D02*
X54879Y-27207D01*
X54879Y-27297D01*
X54868Y-27320D01*
X54856Y-27331D01*
X54834Y-27342D01*
X54800Y-27342D01*
X54778Y-27331D01*
X54766Y-27320D01*
X54755Y-27297D01*
X54755Y-27207D01*
X54766Y-27522D02*
X54755Y-27556D01*
X54744Y-27567D01*
X54721Y-27578D01*
X54688Y-27578D01*
X54665Y-27567D01*
X54654Y-27556D01*
X54643Y-27533D01*
X54643Y-27443D01*
X54879Y-27443D01*
X54879Y-27522D01*
X54868Y-27544D01*
X54856Y-27556D01*
X54834Y-27567D01*
X54811Y-27567D01*
X54789Y-27556D01*
X54778Y-27544D01*
X54766Y-27522D01*
X54766Y-27443D01*
X54879Y-27724D02*
X54879Y-27747D01*
X54868Y-27769D01*
X54856Y-27781D01*
X54834Y-27792D01*
X54789Y-27803D01*
X54733Y-27803D01*
X54688Y-27792D01*
X54665Y-27781D01*
X54654Y-27769D01*
X54643Y-27747D01*
X54643Y-27724D01*
X54654Y-27702D01*
X54665Y-27691D01*
X54688Y-27679D01*
X54733Y-27668D01*
X54789Y-27668D01*
X54834Y-27679D01*
X54856Y-27691D01*
X54868Y-27702D01*
X54879Y-27724D01*
X55460Y-43436D02*
X55460Y-43548D01*
X55393Y-43413D02*
X55629Y-43492D01*
X55393Y-43571D01*
X55629Y-43616D02*
X55393Y-43695D01*
X55629Y-43773D01*
X55393Y-43987D02*
X55505Y-43908D01*
X55393Y-43852D02*
X55629Y-43852D01*
X55629Y-43942D01*
X55618Y-43965D01*
X55606Y-43976D01*
X55584Y-43987D01*
X55550Y-43987D01*
X55528Y-43976D01*
X55516Y-43965D01*
X55505Y-43942D01*
X55505Y-43852D01*
X55370Y-44032D02*
X55370Y-44212D01*
X55393Y-44268D02*
X55629Y-44268D01*
X55539Y-44268D02*
X55550Y-44291D01*
X55550Y-44336D01*
X55539Y-44358D01*
X55528Y-44370D01*
X55505Y-44381D01*
X55438Y-44381D01*
X55415Y-44370D01*
X55404Y-44358D01*
X55393Y-44336D01*
X55393Y-44291D01*
X55404Y-44268D01*
X55393Y-44516D02*
X55404Y-44493D01*
X55415Y-44482D01*
X55438Y-44471D01*
X55505Y-44471D01*
X55528Y-44482D01*
X55539Y-44493D01*
X55550Y-44516D01*
X55550Y-44550D01*
X55539Y-44572D01*
X55528Y-44583D01*
X55505Y-44595D01*
X55438Y-44595D01*
X55415Y-44583D01*
X55404Y-44572D01*
X55393Y-44550D01*
X55393Y-44516D01*
X55393Y-44797D02*
X55516Y-44797D01*
X55539Y-44786D01*
X55550Y-44763D01*
X55550Y-44718D01*
X55539Y-44696D01*
X55404Y-44797D02*
X55393Y-44775D01*
X55393Y-44718D01*
X55404Y-44696D01*
X55426Y-44685D01*
X55449Y-44685D01*
X55471Y-44696D01*
X55483Y-44718D01*
X55483Y-44775D01*
X55494Y-44797D01*
X55393Y-44910D02*
X55550Y-44910D01*
X55505Y-44910D02*
X55528Y-44921D01*
X55539Y-44932D01*
X55550Y-44955D01*
X55550Y-44977D01*
X55393Y-45157D02*
X55629Y-45157D01*
X55404Y-45157D02*
X55393Y-45134D01*
X55393Y-45089D01*
X55404Y-45067D01*
X55415Y-45056D01*
X55438Y-45044D01*
X55505Y-45044D01*
X55528Y-45056D01*
X55539Y-45067D01*
X55550Y-45089D01*
X55550Y-45134D01*
X55539Y-45157D01*
X55370Y-45213D02*
X55370Y-45393D01*
X55393Y-45449D02*
X55550Y-45449D01*
X55528Y-45449D02*
X55539Y-45461D01*
X55550Y-45483D01*
X55550Y-45517D01*
X55539Y-45539D01*
X55516Y-45551D01*
X55393Y-45551D01*
X55516Y-45551D02*
X55539Y-45562D01*
X55550Y-45584D01*
X55550Y-45618D01*
X55539Y-45641D01*
X55516Y-45652D01*
X55393Y-45652D01*
X55528Y-45798D02*
X55539Y-45776D01*
X55550Y-45764D01*
X55573Y-45753D01*
X55584Y-45753D01*
X55606Y-45764D01*
X55618Y-45776D01*
X55629Y-45798D01*
X55629Y-45843D01*
X55618Y-45866D01*
X55606Y-45877D01*
X55584Y-45888D01*
X55573Y-45888D01*
X55550Y-45877D01*
X55539Y-45866D01*
X55528Y-45843D01*
X55528Y-45798D01*
X55516Y-45776D01*
X55505Y-45764D01*
X55483Y-45753D01*
X55438Y-45753D01*
X55415Y-45764D01*
X55404Y-45776D01*
X55393Y-45798D01*
X55393Y-45843D01*
X55404Y-45866D01*
X55415Y-45877D01*
X55438Y-45888D01*
X55483Y-45888D01*
X55505Y-45877D01*
X55516Y-45866D01*
X55528Y-45843D01*
X55629Y-46102D02*
X55629Y-45989D01*
X55516Y-45978D01*
X55528Y-45989D01*
X55539Y-46012D01*
X55539Y-46068D01*
X55528Y-46091D01*
X55516Y-46102D01*
X55494Y-46113D01*
X55438Y-46113D01*
X55415Y-46102D01*
X55404Y-46091D01*
X55393Y-46068D01*
X55393Y-46012D01*
X55404Y-45989D01*
X55415Y-45978D01*
X55393Y-46338D02*
X55393Y-46203D01*
X55393Y-46271D02*
X55629Y-46271D01*
X55595Y-46248D01*
X55573Y-46226D01*
X55561Y-46203D01*
X55629Y-46552D02*
X55629Y-46439D01*
X55516Y-46428D01*
X55528Y-46439D01*
X55539Y-46462D01*
X55539Y-46518D01*
X55528Y-46541D01*
X55516Y-46552D01*
X55494Y-46563D01*
X55438Y-46563D01*
X55415Y-46552D01*
X55404Y-46541D01*
X55393Y-46518D01*
X55393Y-46462D01*
X55404Y-46439D01*
X55415Y-46428D01*
X55003Y-44679D02*
X55160Y-44679D01*
X55115Y-44679D02*
X55138Y-44690D01*
X55149Y-44701D01*
X55160Y-44724D01*
X55160Y-44746D01*
X55014Y-44915D02*
X55003Y-44893D01*
X55003Y-44848D01*
X55014Y-44825D01*
X55037Y-44814D01*
X55127Y-44814D01*
X55149Y-44825D01*
X55160Y-44848D01*
X55160Y-44893D01*
X55149Y-44915D01*
X55127Y-44926D01*
X55104Y-44926D01*
X55082Y-44814D01*
X55160Y-45005D02*
X55003Y-45061D01*
X55160Y-45118D01*
X55239Y-45253D02*
X55239Y-45275D01*
X55228Y-45298D01*
X55217Y-45309D01*
X55194Y-45320D01*
X55149Y-45331D01*
X55093Y-45331D01*
X55048Y-45320D01*
X55025Y-45309D01*
X55014Y-45298D01*
X55003Y-45275D01*
X55003Y-45253D01*
X55014Y-45230D01*
X55025Y-45219D01*
X55048Y-45208D01*
X55093Y-45196D01*
X55149Y-45196D01*
X55194Y-45208D01*
X55217Y-45219D01*
X55228Y-45230D01*
X55239Y-45253D01*
G54D11*
X57760Y-28092D02*
X57730Y-28077D01*
X57685Y-28077D01*
X57640Y-28092D01*
X57610Y-28122D01*
X57595Y-28152D01*
X57580Y-28212D01*
X57580Y-28257D01*
X57595Y-28317D01*
X57610Y-28347D01*
X57640Y-28377D01*
X57685Y-28392D01*
X57715Y-28392D01*
X57760Y-28377D01*
X57775Y-28362D01*
X57775Y-28257D01*
X57715Y-28257D01*
X57910Y-28392D02*
X57910Y-28077D01*
X58089Y-28392D01*
X58089Y-28077D01*
X58239Y-28392D02*
X58239Y-28077D01*
X58314Y-28077D01*
X58359Y-28092D01*
X58389Y-28122D01*
X58404Y-28152D01*
X58419Y-28212D01*
X58419Y-28257D01*
X58404Y-28317D01*
X58389Y-28347D01*
X58359Y-28377D01*
X58314Y-28392D01*
X58239Y-28392D01*
X55602Y-28077D02*
X55782Y-28077D01*
X55692Y-28392D02*
X55692Y-28077D01*
X55857Y-28077D02*
X56067Y-28392D01*
X56067Y-28077D02*
X55857Y-28392D01*
X56187Y-28392D02*
X56187Y-28077D01*
X56262Y-28077D01*
X56307Y-28092D01*
X56337Y-28122D01*
X56352Y-28152D01*
X56367Y-28212D01*
X56367Y-28257D01*
X56352Y-28317D01*
X56337Y-28347D01*
X56307Y-28377D01*
X56262Y-28392D01*
X56187Y-28392D01*
X56790Y-28392D02*
X56685Y-28242D01*
X56610Y-28392D02*
X56610Y-28077D01*
X56730Y-28077D01*
X56760Y-28092D01*
X56775Y-28107D01*
X56790Y-28137D01*
X56790Y-28182D01*
X56775Y-28212D01*
X56760Y-28227D01*
X56730Y-28242D01*
X56610Y-28242D01*
X56895Y-28077D02*
X57104Y-28392D01*
X57104Y-28077D02*
X56895Y-28392D01*
X57224Y-28392D02*
X57224Y-28077D01*
X57299Y-28077D01*
X57344Y-28092D01*
X57374Y-28122D01*
X57389Y-28152D01*
X57404Y-28212D01*
X57404Y-28257D01*
X57389Y-28317D01*
X57374Y-28347D01*
X57344Y-28377D01*
X57299Y-28392D01*
X57224Y-28392D01*
X55642Y-31160D02*
X55642Y-31339D01*
X55642Y-31250D02*
X55327Y-31250D01*
X55372Y-31279D01*
X55402Y-31309D01*
X55417Y-31339D01*
G54D12*
X57980Y-32500D02*
X56000Y-32500D01*
X56000Y-32500D02*
X56000Y-31500D01*
X56000Y-31500D02*
X58000Y-31500D01*
X58000Y-31500D02*
X58000Y-32500D01*
X58000Y-32250D02*
X57750Y-32500D01*
X60000Y-41020D02*
X60000Y-43000D01*
X60000Y-43000D02*
X59000Y-43000D01*
X59000Y-43000D02*
X59000Y-41000D01*
X59000Y-41000D02*
X60000Y-41000D01*
X59750Y-41000D02*
X60000Y-41250D01*
X56000Y-41020D02*
X56000Y-43000D01*
X56000Y-43000D02*
X55000Y-43000D01*
X55000Y-43000D02*
X55000Y-41000D01*
X55000Y-41000D02*
X56000Y-41000D01*
X55750Y-41000D02*
X56000Y-41250D01*
G54D13*
X56750Y-42750D02*
X56750Y-43250D01*
X56250Y-42750D02*
X56250Y-43240D01*
X56100Y-42750D02*
X56900Y-42750D01*
X56900Y-42750D02*
X56900Y-43250D01*
X56900Y-43250D02*
X56100Y-43250D01*
X56100Y-43250D02*
X56100Y-42750D01*
X58250Y-43250D02*
X58250Y-42750D01*
X58750Y-43250D02*
X58750Y-42760D01*
X58900Y-43250D02*
X58100Y-43250D01*
X58100Y-43250D02*
X58100Y-42750D01*
X58100Y-42750D02*
X58900Y-42750D01*
X58900Y-42750D02*
X58900Y-43250D01*
G54D14*
X59720Y-32500D02*
X59720Y-31500D01*
G54D15*
X58639Y-31615D02*
G75*
G03X58500Y-32000I460J-384D01*
G74*
G01*
X58500Y-32000D02*
G75*
G03X58652Y-32398I599J0D01*
G74*
G01*
X59699Y-31999D02*
G75*
G03X59555Y-31610I-599J0D01*
G74*
G01*
X59560Y-32384D02*
G75*
G03X59700Y-32000I-460J384D01*
G74*
G01*
X59587Y-31650D02*
G75*
G03X59100Y-31400I-487J-349D01*
G74*
G01*
X59099Y-31400D02*
G75*
G03X58620Y-31640I0J-600D01*
G74*
G01*
X59100Y-32599D02*
G75*
G03X59573Y-32368I0J599D01*
G74*
G01*
X58626Y-32368D02*
G75*
G03X59100Y-32600I473J368D01*
G74*
G01*
X59100Y-31750D02*
G75*
G03X58850Y-32000I0J-250D01*
G74*
G01*
X59100Y-31600D02*
G75*
G03X58700Y-32000I0J-400D01*
G74*
G01*
X59100Y-32250D02*
G75*
G03X59350Y-32000I0J250D01*
G74*
G01*
X59100Y-32400D02*
G75*
G03X59500Y-32000I0J400D01*
G74*
G01*
G54D14*
X59713Y-31486D02*
G75*
G03X59100Y-31200I-613J-513D01*
G74*
G01*
X59099Y-31201D02*
G75*
G03X58395Y-31624I0J-799D01*
G74*
G01*
X59101Y-32798D02*
G75*
G03X59710Y-32516I-1J798D01*
G74*
G01*
X58405Y-32397D02*
G75*
G03X59100Y-32800I694J397D01*
G74*
G01*
X58395Y-31620D02*
G75*
G03X58300Y-32000I704J-379D01*
G74*
G01*
X58300Y-32000D02*
G75*
G03X58419Y-32419I799J0D01*
G74*
G01*
G54D12*
X59470Y-33530D02*
X59470Y-37470D01*
X59470Y-37470D02*
X55530Y-37470D01*
X55530Y-33720D02*
X55530Y-37470D01*
X55720Y-33530D02*
X59470Y-33530D01*
X55530Y-33720D02*
X55720Y-33530D01*
G54D16*
X56250Y-34000D02*
G75*
G03X56250Y-34000I-250J0D01*
G74*
G01*
G54D15*
X55500Y-28000D02*
X55500Y-27000D01*
X55500Y-27000D02*
X58500Y-27000D01*
X58500Y-27000D02*
X58500Y-28000D01*
X58500Y-28000D02*
X55500Y-28000D01*
X56500Y-27000D02*
X56500Y-28000D01*
G54D10*
X54500Y-28000D02*
X53500Y-28000D01*
X54500Y-27000D02*
X54500Y-47000D01*
X54500Y-47000D02*
X53500Y-47000D01*
X53500Y-47000D02*
X53500Y-27000D01*
X53500Y-27000D02*
X54500Y-27000D01*
G54D16*
X58000Y-31000D02*
X55000Y-31000D01*
X55000Y-29000D02*
X58000Y-29000D01*
X58000Y-29000D02*
X58000Y-31000D01*
X55000Y-31000D02*
X55000Y-29000D01*
G54D10*
X61500Y-28000D02*
X60500Y-28000D01*
X61500Y-27000D02*
X61500Y-47000D01*
X61500Y-47000D02*
X60500Y-47000D01*
X60500Y-47000D02*
X60500Y-27000D01*
X60500Y-27000D02*
X61500Y-27000D01*
G54D17*
X59500Y-30500D02*
X58500Y-30500D01*
X60059Y-30500D02*
G75*
G03X60059Y-30500I-559J0D01*
G74*
G01*
G54D13*
X58500Y-45000D02*
G75*
G03X58500Y-45000I-1000J0D01*
G74*
G01*
X56000Y-43500D02*
X59000Y-43500D01*
X59000Y-43500D02*
X59000Y-46500D01*
X59000Y-46500D02*
X56000Y-46500D01*
X56000Y-43500D02*
X56000Y-46500D01*
G54D15*
X54750Y-39000D02*
X55250Y-38500D01*
X59750Y-38500D02*
X60250Y-39000D01*
X60250Y-40000D02*
X59750Y-40500D01*
X54750Y-40000D02*
X55250Y-40500D01*
X55250Y-38500D02*
X59750Y-38500D01*
X54750Y-39000D02*
X54750Y-40000D01*
X55250Y-40500D02*
X59750Y-40500D01*
X60250Y-40000D02*
X60250Y-39000D01*
G54D13*
X56070Y-42300D02*
G75*
G03X56070Y-42300I-70J0D01*
G74*
G01*
X58050Y-42250D02*
X58950Y-42250D01*
X58950Y-42250D02*
X58950Y-40750D01*
X58950Y-40750D02*
X58050Y-40750D01*
X56950Y-40750D02*
X56050Y-40750D01*
X56050Y-40750D02*
X56050Y-42250D01*
X56050Y-42250D02*
X56950Y-42250D01*
G54D15*
X60000Y-29000D02*
X60000Y-30000D01*
X60000Y-30000D02*
X58000Y-30000D01*
X58000Y-30000D02*
X58000Y-29000D01*
X58000Y-29000D02*
X60000Y-29000D01*
G54D16*
X56933Y-32642D02*
X56914Y-32661D01*
X56857Y-32680D01*
X56819Y-32680D01*
X56761Y-32661D01*
X56723Y-32623D01*
X56704Y-32585D01*
X56685Y-32509D01*
X56685Y-32452D01*
X56704Y-32376D01*
X56723Y-32338D01*
X56761Y-32300D01*
X56819Y-32280D01*
X56857Y-32280D01*
X56914Y-32300D01*
X56933Y-32319D01*
X57314Y-32680D02*
X57085Y-32680D01*
X57200Y-32680D02*
X57200Y-32280D01*
X57161Y-32338D01*
X57123Y-32376D01*
X57085Y-32395D01*
X59433Y-40892D02*
X59414Y-40911D01*
X59357Y-40930D01*
X59319Y-40930D01*
X59261Y-40911D01*
X59223Y-40873D01*
X59204Y-40835D01*
X59185Y-40759D01*
X59185Y-40702D01*
X59204Y-40626D01*
X59223Y-40588D01*
X59261Y-40550D01*
X59319Y-40530D01*
X59357Y-40530D01*
X59414Y-40550D01*
X59433Y-40569D01*
X59585Y-40569D02*
X59604Y-40550D01*
X59642Y-40530D01*
X59738Y-40530D01*
X59776Y-40550D01*
X59795Y-40569D01*
X59814Y-40607D01*
X59814Y-40645D01*
X59795Y-40702D01*
X59566Y-40930D01*
X59814Y-40930D01*
X55433Y-40892D02*
X55414Y-40911D01*
X55357Y-40930D01*
X55319Y-40930D01*
X55261Y-40911D01*
X55223Y-40873D01*
X55204Y-40835D01*
X55185Y-40759D01*
X55185Y-40702D01*
X55204Y-40626D01*
X55223Y-40588D01*
X55261Y-40550D01*
X55319Y-40530D01*
X55357Y-40530D01*
X55414Y-40550D01*
X55433Y-40569D01*
X55566Y-40530D02*
X55814Y-40530D01*
X55680Y-40683D01*
X55738Y-40683D01*
X55776Y-40702D01*
X55795Y-40721D01*
X55814Y-40759D01*
X55814Y-40854D01*
X55795Y-40892D01*
X55776Y-40911D01*
X55738Y-40930D01*
X55623Y-40930D01*
X55585Y-40911D01*
X55566Y-40892D01*
G54D18*
X55480Y-43542D02*
X55474Y-43547D01*
X55457Y-43553D01*
X55446Y-43553D01*
X55429Y-43547D01*
X55418Y-43536D01*
X55412Y-43525D01*
X55407Y-43502D01*
X55407Y-43485D01*
X55412Y-43463D01*
X55418Y-43452D01*
X55429Y-43441D01*
X55446Y-43435D01*
X55457Y-43435D01*
X55474Y-43441D01*
X55480Y-43446D01*
X55581Y-43474D02*
X55581Y-43553D01*
X55553Y-43429D02*
X55525Y-43514D01*
X55598Y-43514D01*
X59480Y-43542D02*
X59474Y-43547D01*
X59457Y-43553D01*
X59446Y-43553D01*
X59429Y-43547D01*
X59418Y-43536D01*
X59412Y-43525D01*
X59407Y-43502D01*
X59407Y-43485D01*
X59412Y-43463D01*
X59418Y-43452D01*
X59429Y-43441D01*
X59446Y-43435D01*
X59457Y-43435D01*
X59474Y-43441D01*
X59480Y-43446D01*
X59587Y-43435D02*
X59530Y-43435D01*
X59525Y-43491D01*
X59530Y-43485D01*
X59542Y-43480D01*
X59570Y-43480D01*
X59581Y-43485D01*
X59587Y-43491D01*
X59592Y-43502D01*
X59592Y-43530D01*
X59587Y-43542D01*
X59581Y-43547D01*
X59570Y-43553D01*
X59542Y-43553D01*
X59530Y-43547D01*
X59525Y-43542D01*
G54D19*
X59578Y-31335D02*
X59578Y-31035D01*
X59650Y-31035D01*
X59692Y-31050D01*
X59721Y-31078D01*
X59735Y-31107D01*
X59750Y-31164D01*
X59750Y-31207D01*
X59735Y-31264D01*
X59721Y-31292D01*
X59692Y-31321D01*
X59650Y-31335D01*
X59578Y-31335D01*
X60035Y-31335D02*
X59864Y-31335D01*
X59950Y-31335D02*
X59950Y-31035D01*
X59921Y-31078D01*
X59892Y-31107D01*
X59864Y-31121D01*
X55492Y-31335D02*
X55350Y-31335D01*
X55350Y-31035D01*
X55592Y-31178D02*
X55692Y-31178D01*
X55735Y-31335D02*
X55592Y-31335D01*
X55592Y-31035D01*
X55735Y-31035D01*
X55864Y-31335D02*
X55864Y-31035D01*
X55935Y-31035D01*
X55978Y-31050D01*
X56007Y-31078D01*
X56021Y-31107D01*
X56035Y-31164D01*
X56035Y-31207D01*
X56021Y-31264D01*
X56007Y-31292D01*
X55978Y-31321D01*
X55935Y-31335D01*
X55864Y-31335D01*
X56092Y-31364D02*
X56321Y-31364D01*
X56392Y-31335D02*
X56392Y-31035D01*
X56507Y-31035D01*
X56535Y-31050D01*
X56549Y-31064D01*
X56564Y-31092D01*
X56564Y-31135D01*
X56549Y-31164D01*
X56535Y-31178D01*
X56507Y-31192D01*
X56392Y-31192D01*
X56692Y-31178D02*
X56792Y-31178D01*
X56835Y-31335D02*
X56692Y-31335D01*
X56692Y-31035D01*
X56835Y-31035D01*
X57121Y-31335D02*
X56950Y-31335D01*
X57035Y-31335D02*
X57035Y-31035D01*
X57007Y-31078D01*
X56978Y-31107D01*
X56950Y-31121D01*
X57250Y-31221D02*
X57478Y-31221D01*
X57621Y-31135D02*
X57850Y-31221D01*
X57621Y-31307D01*
G54D20*
X55842Y-38550D02*
X55985Y-38550D01*
X55814Y-38635D02*
X55914Y-38335D01*
X56014Y-38635D01*
X56071Y-38335D02*
X56242Y-38335D01*
X56157Y-38635D02*
X56157Y-38335D01*
X56342Y-38635D02*
X56342Y-38335D01*
X56442Y-38550D01*
X56542Y-38335D01*
X56542Y-38635D01*
X56685Y-38478D02*
X56785Y-38478D01*
X56828Y-38635D02*
X56685Y-38635D01*
X56685Y-38335D01*
X56828Y-38335D01*
X57114Y-38350D02*
X57085Y-38335D01*
X57042Y-38335D01*
X57000Y-38350D01*
X56971Y-38378D01*
X56957Y-38407D01*
X56942Y-38464D01*
X56942Y-38507D01*
X56957Y-38564D01*
X56971Y-38592D01*
X57000Y-38621D01*
X57042Y-38635D01*
X57071Y-38635D01*
X57114Y-38621D01*
X57128Y-38607D01*
X57128Y-38507D01*
X57071Y-38507D01*
X57242Y-38550D02*
X57385Y-38550D01*
X57214Y-38635D02*
X57314Y-38335D01*
X57414Y-38635D01*
X57557Y-38464D02*
X57528Y-38450D01*
X57514Y-38435D01*
X57500Y-38407D01*
X57500Y-38392D01*
X57514Y-38364D01*
X57528Y-38350D01*
X57557Y-38335D01*
X57614Y-38335D01*
X57642Y-38350D01*
X57657Y-38364D01*
X57671Y-38392D01*
X57671Y-38407D01*
X57657Y-38435D01*
X57642Y-38450D01*
X57614Y-38464D01*
X57557Y-38464D01*
X57528Y-38478D01*
X57514Y-38492D01*
X57500Y-38521D01*
X57500Y-38578D01*
X57514Y-38607D01*
X57528Y-38621D01*
X57557Y-38635D01*
X57614Y-38635D01*
X57642Y-38621D01*
X57657Y-38607D01*
X57671Y-38578D01*
X57671Y-38521D01*
X57657Y-38492D01*
X57642Y-38478D01*
X57614Y-38464D01*
X57942Y-38335D02*
X57800Y-38335D01*
X57785Y-38478D01*
X57800Y-38464D01*
X57828Y-38450D01*
X57900Y-38450D01*
X57928Y-38464D01*
X57942Y-38478D01*
X57957Y-38507D01*
X57957Y-38578D01*
X57942Y-38607D01*
X57928Y-38621D01*
X57900Y-38635D01*
X57828Y-38635D01*
X57800Y-38621D01*
X57785Y-38607D01*
X58242Y-38635D02*
X58071Y-38635D01*
X58157Y-38635D02*
X58157Y-38335D01*
X58128Y-38378D01*
X58100Y-38407D01*
X58071Y-38421D01*
X58514Y-38335D02*
X58371Y-38335D01*
X58357Y-38478D01*
X58371Y-38464D01*
X58400Y-38450D01*
X58471Y-38450D01*
X58500Y-38464D01*
X58514Y-38478D01*
X58528Y-38507D01*
X58528Y-38578D01*
X58514Y-38607D01*
X58500Y-38621D01*
X58471Y-38635D01*
X58400Y-38635D01*
X58371Y-38621D01*
X58357Y-38607D01*
X58657Y-38521D02*
X58885Y-38521D01*
X59014Y-38550D02*
X59157Y-38550D01*
X58985Y-38635D02*
X59085Y-38335D01*
X59185Y-38635D01*
G54D15*
X58930Y-27795D02*
X58530Y-27795D01*
X58930Y-27566D02*
X58702Y-27738D01*
X58530Y-27566D02*
X58759Y-27795D01*
X58930Y-27185D02*
X58930Y-27414D01*
X58930Y-27299D02*
X58530Y-27299D01*
X58588Y-27338D01*
X58626Y-27376D01*
X58645Y-27414D01*
G54D16*
X57204Y-28930D02*
X57204Y-28530D01*
X57357Y-28530D01*
X57395Y-28550D01*
X57414Y-28569D01*
X57433Y-28607D01*
X57433Y-28664D01*
X57414Y-28702D01*
X57395Y-28721D01*
X57357Y-28740D01*
X57204Y-28740D01*
X57566Y-28530D02*
X57814Y-28530D01*
X57680Y-28683D01*
X57738Y-28683D01*
X57776Y-28702D01*
X57795Y-28721D01*
X57814Y-28759D01*
X57814Y-28854D01*
X57795Y-28892D01*
X57776Y-28911D01*
X57738Y-28930D01*
X57623Y-28930D01*
X57585Y-28911D01*
X57566Y-28892D01*
X58916Y-31048D02*
X58750Y-30786D01*
X58630Y-31048D02*
X58630Y-30498D01*
X58821Y-30498D01*
X58869Y-30525D01*
X58892Y-30551D01*
X58916Y-30603D01*
X58916Y-30682D01*
X58892Y-30734D01*
X58869Y-30760D01*
X58821Y-30786D01*
X58630Y-30786D01*
X59392Y-31048D02*
X59107Y-31048D01*
X59250Y-31048D02*
X59250Y-30498D01*
X59202Y-30577D01*
X59154Y-30629D01*
X59107Y-30655D01*
X56966Y-44861D02*
X57023Y-44880D01*
X57119Y-44880D01*
X57157Y-44861D01*
X57176Y-44842D01*
X57195Y-44804D01*
X57195Y-44766D01*
X57176Y-44728D01*
X57157Y-44709D01*
X57119Y-44690D01*
X57042Y-44671D01*
X57004Y-44652D01*
X56985Y-44633D01*
X56966Y-44595D01*
X56966Y-44557D01*
X56985Y-44519D01*
X57004Y-44500D01*
X57042Y-44480D01*
X57138Y-44480D01*
X57195Y-44500D01*
X57328Y-44480D02*
X57423Y-44880D01*
X57500Y-44595D01*
X57576Y-44880D01*
X57671Y-44480D01*
X58033Y-44880D02*
X57804Y-44880D01*
X57919Y-44880D02*
X57919Y-44480D01*
X57880Y-44538D01*
X57842Y-44576D01*
X57804Y-44595D01*
X59930Y-46152D02*
X59740Y-46285D01*
X59930Y-46380D02*
X59530Y-46380D01*
X59530Y-46228D01*
X59550Y-46190D01*
X59569Y-46171D01*
X59607Y-46152D01*
X59664Y-46152D01*
X59702Y-46171D01*
X59721Y-46190D01*
X59740Y-46228D01*
X59740Y-46380D01*
X59721Y-45980D02*
X59721Y-45847D01*
X59930Y-45790D02*
X59930Y-45980D01*
X59530Y-45980D01*
X59530Y-45790D01*
X59911Y-45638D02*
X59930Y-45580D01*
X59930Y-45485D01*
X59911Y-45447D01*
X59892Y-45428D01*
X59854Y-45409D01*
X59816Y-45409D01*
X59778Y-45428D01*
X59759Y-45447D01*
X59740Y-45485D01*
X59721Y-45561D01*
X59702Y-45599D01*
X59683Y-45619D01*
X59645Y-45638D01*
X59607Y-45638D01*
X59569Y-45619D01*
X59550Y-45599D01*
X59530Y-45561D01*
X59530Y-45466D01*
X59550Y-45409D01*
X59721Y-45238D02*
X59721Y-45104D01*
X59930Y-45047D02*
X59930Y-45238D01*
X59530Y-45238D01*
X59530Y-45047D01*
X59530Y-44933D02*
X59530Y-44704D01*
X59930Y-44819D02*
X59530Y-44819D01*
X59969Y-44666D02*
X59969Y-44361D01*
X59911Y-44285D02*
X59930Y-44228D01*
X59930Y-44133D01*
X59911Y-44095D01*
X59892Y-44076D01*
X59854Y-44057D01*
X59816Y-44057D01*
X59778Y-44076D01*
X59759Y-44095D01*
X59740Y-44133D01*
X59721Y-44209D01*
X59702Y-44247D01*
X59683Y-44266D01*
X59645Y-44285D01*
X59607Y-44285D01*
X59569Y-44266D01*
X59550Y-44247D01*
X59530Y-44209D01*
X59530Y-44114D01*
X59550Y-44057D01*
X59530Y-43923D02*
X59930Y-43828D01*
X59645Y-43752D01*
X59930Y-43676D01*
X59530Y-43580D01*
G54D15*
X57095Y-39253D02*
X57428Y-39703D01*
X57428Y-39253D02*
X57095Y-39703D01*
X57880Y-39703D02*
X57595Y-39703D01*
X57738Y-39703D02*
X57738Y-39253D01*
X57690Y-39317D01*
X57642Y-39360D01*
X57595Y-39382D01*
X55702Y-40310D02*
X55678Y-40332D01*
X55607Y-40353D01*
X55559Y-40353D01*
X55488Y-40332D01*
X55440Y-40289D01*
X55416Y-40246D01*
X55392Y-40160D01*
X55392Y-40096D01*
X55416Y-40010D01*
X55440Y-39967D01*
X55488Y-39925D01*
X55559Y-39903D01*
X55607Y-39903D01*
X55678Y-39925D01*
X55702Y-39946D01*
X56202Y-40353D02*
X56035Y-40139D01*
X55916Y-40353D02*
X55916Y-39903D01*
X56107Y-39903D01*
X56154Y-39925D01*
X56178Y-39946D01*
X56202Y-39989D01*
X56202Y-40053D01*
X56178Y-40096D01*
X56154Y-40117D01*
X56107Y-40139D01*
X55916Y-40139D01*
X56511Y-40139D02*
X56511Y-40353D01*
X56345Y-39903D02*
X56511Y-40139D01*
X56678Y-39903D01*
X56821Y-40332D02*
X56892Y-40353D01*
X57011Y-40353D01*
X57059Y-40332D01*
X57083Y-40310D01*
X57107Y-40267D01*
X57107Y-40225D01*
X57083Y-40182D01*
X57059Y-40160D01*
X57011Y-40139D01*
X56916Y-40117D01*
X56869Y-40096D01*
X56845Y-40075D01*
X56821Y-40032D01*
X56821Y-39989D01*
X56845Y-39946D01*
X56869Y-39925D01*
X56916Y-39903D01*
X57035Y-39903D01*
X57107Y-39925D01*
X57250Y-39903D02*
X57535Y-39903D01*
X57392Y-40353D02*
X57392Y-39903D01*
X57678Y-40225D02*
X57916Y-40225D01*
X57630Y-40353D02*
X57797Y-39903D01*
X57964Y-40353D01*
X58369Y-40353D02*
X58130Y-40353D01*
X58130Y-39903D01*
X58416Y-40396D02*
X58797Y-40396D01*
X58845Y-39903D02*
X59130Y-39903D01*
X58988Y-40353D02*
X58988Y-39903D01*
X59297Y-40353D02*
X59297Y-39903D01*
X59297Y-40117D02*
X59583Y-40117D01*
X59583Y-40353D02*
X59583Y-39903D01*
G54D13*
X57060Y-41742D02*
X57410Y-41542D01*
X57060Y-41542D02*
X57410Y-41742D01*
X57093Y-41442D02*
X57077Y-41428D01*
X57060Y-41400D01*
X57060Y-41328D01*
X57077Y-41300D01*
X57093Y-41285D01*
X57127Y-41271D01*
X57160Y-41271D01*
X57210Y-41285D01*
X57410Y-41457D01*
X57410Y-41271D01*
X56228Y-42625D02*
X56214Y-42641D01*
X56171Y-42658D01*
X56142Y-42658D01*
X56100Y-42641D01*
X56071Y-42608D01*
X56057Y-42575D01*
X56042Y-42508D01*
X56042Y-42458D01*
X56057Y-42391D01*
X56071Y-42358D01*
X56100Y-42325D01*
X56142Y-42308D01*
X56171Y-42308D01*
X56214Y-42325D01*
X56228Y-42341D01*
X56528Y-42658D02*
X56428Y-42491D01*
X56357Y-42658D02*
X56357Y-42308D01*
X56471Y-42308D01*
X56500Y-42325D01*
X56514Y-42341D01*
X56528Y-42375D01*
X56528Y-42425D01*
X56514Y-42458D01*
X56500Y-42475D01*
X56471Y-42491D01*
X56357Y-42491D01*
X56714Y-42491D02*
X56714Y-42658D01*
X56614Y-42308D02*
X56714Y-42491D01*
X56814Y-42308D01*
X56900Y-42641D02*
X56942Y-42658D01*
X57014Y-42658D01*
X57042Y-42641D01*
X57057Y-42625D01*
X57071Y-42591D01*
X57071Y-42558D01*
X57057Y-42525D01*
X57042Y-42508D01*
X57014Y-42491D01*
X56957Y-42475D01*
X56928Y-42458D01*
X56914Y-42441D01*
X56900Y-42408D01*
X56900Y-42375D01*
X56914Y-42341D01*
X56928Y-42325D01*
X56957Y-42308D01*
X57028Y-42308D01*
X57071Y-42325D01*
X57157Y-42308D02*
X57328Y-42308D01*
X57242Y-42658D02*
X57242Y-42308D01*
X57414Y-42558D02*
X57557Y-42558D01*
X57385Y-42658D02*
X57485Y-42308D01*
X57585Y-42658D01*
X57828Y-42658D02*
X57685Y-42658D01*
X57685Y-42308D01*
X57857Y-42691D02*
X58085Y-42691D01*
X58142Y-42641D02*
X58185Y-42658D01*
X58257Y-42658D01*
X58285Y-42641D01*
X58300Y-42625D01*
X58314Y-42591D01*
X58314Y-42558D01*
X58300Y-42525D01*
X58285Y-42508D01*
X58257Y-42491D01*
X58200Y-42475D01*
X58171Y-42458D01*
X58157Y-42441D01*
X58142Y-42408D01*
X58142Y-42375D01*
X58157Y-42341D01*
X58171Y-42325D01*
X58200Y-42308D01*
X58271Y-42308D01*
X58314Y-42325D01*
X58442Y-42658D02*
X58442Y-42308D01*
X58542Y-42558D01*
X58642Y-42308D01*
X58642Y-42658D01*
X58785Y-42658D02*
X58785Y-42308D01*
X58857Y-42308D01*
X58899Y-42325D01*
X58928Y-42358D01*
X58942Y-42391D01*
X58957Y-42458D01*
X58957Y-42508D01*
X58942Y-42575D01*
X58928Y-42608D01*
X58899Y-42641D01*
X58857Y-42658D01*
X58785Y-42658D01*
G54D15*
X59028Y-28385D02*
X59028Y-28085D01*
X59142Y-28085D01*
X59171Y-28100D01*
X59185Y-28114D01*
X59200Y-28142D01*
X59200Y-28185D01*
X59185Y-28214D01*
X59171Y-28228D01*
X59142Y-28242D01*
X59028Y-28242D01*
X59471Y-28085D02*
X59328Y-28085D01*
X59314Y-28228D01*
X59328Y-28214D01*
X59357Y-28200D01*
X59428Y-28200D01*
X59457Y-28214D01*
X59471Y-28228D01*
X59485Y-28257D01*
X59485Y-28328D01*
X59471Y-28357D01*
X59457Y-28371D01*
X59428Y-28385D01*
X59357Y-28385D01*
X59328Y-28371D01*
X59314Y-28357D01*
M02*
